<svg width="20" height="16" viewBox="0 0 20 16" fill="none" xmlns="http://www.w3.org/2000/svg">
<path d="M19.0625 7.94922C19.0625 7.70508 18.9648 7.48047 18.7695 7.29492L12.2949 0.839844C12.0801 0.625 11.875 0.546875 11.6406 0.546875C11.1621 0.546875 10.791 0.898438 10.791 1.38672C10.791 1.62109 10.8691 1.8457 11.0254 2.00195L13.2129 4.22852L16.4941 7.22656L14.1406 7.08008H1.78711C1.2793 7.08008 0.927734 7.44141 0.927734 7.94922C0.927734 8.45703 1.2793 8.81836 1.78711 8.81836H14.1406L16.5039 8.67188L13.2129 11.6699L11.0254 13.8965C10.8691 14.043 10.791 14.2773 10.791 14.5117C10.791 15 11.1621 15.3516 11.6406 15.3516C11.875 15.3516 12.0801 15.2637 12.2754 15.0781L18.7695 8.60352C18.9648 8.41797 19.0625 8.19336 19.0625 7.94922Z" fill="#FF7200"/>
</svg>
