<svg width="19" height="11" viewBox="0 0 19 11" fill="none" xmlns="http://www.w3.org/2000/svg">
<path d="M0.880859 8.48828L8.19531 0.988281C8.52734 0.65625 8.87891 0.5 9.28906 0.5C9.70898 0.5 10.0703 0.666016 10.3926 0.998047L17.707 8.48828C17.9609 8.74219 18.0977 9.05469 18.0977 9.43555C18.0977 10.1875 17.4922 10.8027 16.7402 10.8027C16.3691 10.8027 16.0078 10.6562 15.7441 10.373L9.29883 3.73242L2.84375 10.373C2.57031 10.6465 2.22852 10.8027 1.84766 10.8027C1.0957 10.8027 0.490234 10.1875 0.490234 9.43555C0.490234 9.06445 0.626953 8.74219 0.880859 8.48828Z" fill="#FF7200"/>
</svg>
