<svg width="19" height="11" viewBox="0 0 19 11" fill="none" xmlns="http://www.w3.org/2000/svg">
<path d="M1.38086 2.51172L8.69531 10.0117C9.02734 10.3438 9.37891 10.5 9.78906 10.5C10.209 10.5 10.5703 10.334 10.8926 10.002L18.207 2.51172C18.4609 2.25781 18.5977 1.94531 18.5977 1.56445C18.5977 0.8125 17.9922 0.197266 17.2402 0.197266C16.8691 0.197266 16.5078 0.34375 16.2441 0.626953L9.79883 7.26758L3.34375 0.626953C3.07031 0.353516 2.72852 0.197266 2.34766 0.197266C1.5957 0.197266 0.990234 0.8125 0.990234 1.56445C0.990234 1.93555 1.12695 2.25781 1.38086 2.51172Z" fill="#FF7200"/>
</svg>
