<svg width="32" height="30" viewBox="0 0 32 30" fill="none" xmlns="http://www.w3.org/2000/svg">
<path d="M2.61237 22.252L0.876953 20.977L6.81339 11.504C7.17152 10.9325 7.9811 10.8721 8.42001 11.3842L10.892 14.2681C11.3334 14.7831 12.1486 14.7186 12.5034 14.1405L16.599 7.4691C16.9808 6.84723 17.8785 6.83043 18.2833 7.43758L20.8165 11.2374C20.4151 11.261 20.0317 11.3139 19.6662 11.3961C19.2998 11.4792 18.9395 11.5916 18.5853 11.7333L18.3838 11.4244C17.9834 10.8103 17.0801 10.8217 16.6952 11.4456L12.8227 17.7226C12.4671 18.2989 11.6537 18.3626 11.2127 17.8488L8.70594 14.9277C8.26614 14.4152 7.4553 14.477 7.09825 15.0502L2.61237 22.252ZM29.5645 29.0874L24.9249 24.4479C24.4763 24.7784 23.9804 25.0263 23.4374 25.1916C22.8943 25.3569 22.3395 25.4395 21.7728 25.4395C20.1908 25.4395 18.8511 24.8908 17.7537 23.7934C16.6553 22.695 16.1061 21.3548 16.1061 19.7729C16.1061 18.1909 16.6553 16.8507 17.7537 15.7524C18.8511 14.6549 20.1908 14.1062 21.7728 14.1062C23.3547 14.1062 24.6949 14.6549 25.7933 15.7524C26.8907 16.8507 27.4395 18.1909 27.4395 19.7729C27.4395 20.3631 27.3568 20.9298 27.1915 21.4729C27.0263 22.0159 26.7783 22.5117 26.4478 22.9604L31.0874 27.5645L29.5645 29.0874ZM21.7728 23.3145C22.7645 23.3145 23.6026 22.9722 24.2874 22.2874C24.9721 21.6027 25.3145 20.7645 25.3145 19.7729C25.3145 18.7812 24.9721 17.943 24.2874 17.2583C23.6026 16.5735 22.7645 16.2312 21.7728 16.2312C20.7811 16.2312 19.9429 16.5735 19.2582 17.2583C18.5735 17.943 18.2311 18.7812 18.2311 19.7729C18.2311 20.7645 18.5735 21.6027 19.2582 22.2874C19.9429 22.9722 20.7811 23.3145 21.7728 23.3145ZM24.6415 11.7333C24.311 11.5916 23.9686 11.4792 23.6145 11.3961C23.2603 11.3139 22.8825 11.261 22.4811 11.2374L29.3874 0.329102L31.1228 1.6041L24.6415 11.7333Z" fill="#FF7200"/>
</svg>
