<svg width="32" height="32" viewBox="0 0 32 32" fill="none" xmlns="http://www.w3.org/2000/svg">
<path d="M11.8939 20.7814C12.2882 21.1783 12.9314 21.1745 13.321 20.773L13.4104 20.6809C13.79 20.2897 13.7863 19.6665 13.4021 19.2798L11.759 17.6258C11.3716 17.2358 11.3716 16.6063 11.759 16.2163L13.4021 14.5623C13.7863 14.1756 13.79 13.5524 13.4104 13.1612L13.321 13.0691C12.9314 12.6676 12.2882 12.6638 11.8939 13.0607L8.759 16.2163C8.37156 16.6063 8.37156 17.2358 8.759 17.6258L11.8939 20.7814ZM18.679 20.773C19.0686 21.1745 19.7118 21.1783 20.1061 20.7814L23.241 17.6258C23.6284 17.2358 23.6284 16.6063 23.241 16.2163L20.1061 13.0607C19.7118 12.6638 19.0686 12.6676 18.679 13.0691L18.5896 13.1612C18.21 13.5524 18.2137 14.1756 18.5979 14.5623L20.241 16.2163C20.6284 16.6063 20.6284 17.2358 20.241 17.6258L18.5979 19.2798C18.2137 19.6665 18.21 20.2897 18.5896 20.6809L18.679 20.773ZM6.54118 29C5.83529 29 5.23529 28.7513 4.74118 28.2539C4.24706 27.7566 4 27.1526 4 26.4421V7.4C4 6.68947 4.24706 6.08553 4.74118 5.58816C5.23529 5.09079 5.83529 4.84211 6.54118 4.84211H12.8235C12.9176 4.06053 13.2649 3.39121 13.8654 2.83416C14.4649 2.27805 15.1765 2 16 2C16.8471 2 17.5647 2.27805 18.1529 2.83416C18.7412 3.39121 19.0824 4.06053 19.1765 4.84211H25.4588C26.1647 4.84211 26.7647 5.09079 27.2588 5.58816C27.7529 6.08553 28 6.68947 28 7.4V26.4421C28 27.1526 27.7529 27.7566 27.2588 28.2539C26.7647 28.7513 26.1647 29 25.4588 29H6.54118ZM16 6.05C16.3059 6.05 16.5591 5.94911 16.7595 5.74732C16.9591 5.54647 17.0588 5.2921 17.0588 4.98421C17.0588 4.67632 16.9591 4.42147 16.7595 4.21968C16.5591 4.01884 16.3059 3.91842 16 3.91842C15.6941 3.91842 15.4414 4.01884 15.2419 4.21968C15.0414 4.42147 14.9412 4.67632 14.9412 4.98421C14.9412 5.2921 15.0414 5.54647 15.2419 5.74732C15.4414 5.94911 15.6941 6.05 16 6.05ZM6.54118 26.8684H25.4588C25.5529 26.8684 25.6471 26.8211 25.7412 26.7263C25.8353 26.6316 25.8824 26.5368 25.8824 26.4421V7.4C25.8824 7.30526 25.8353 7.21053 25.7412 7.11579C25.6471 7.02105 25.5529 6.97368 25.4588 6.97368H6.54118C6.44706 6.97368 6.35294 7.02105 6.25882 7.11579C6.16471 7.21053 6.11765 7.30526 6.11765 7.4V26.4421C6.11765 26.5368 6.16471 26.6316 6.25882 26.7263C6.35294 26.8211 6.44706 26.8684 6.54118 26.8684Z" fill="#F56627"/>
</svg>
