<svg width="30" height="30" viewBox="0 0 30 30" fill="none" xmlns="http://www.w3.org/2000/svg">
<path d="M13.725 25.4125L6.7125 21.375C6.31111 21.1389 5.9985 20.8201 5.77467 20.4187C5.54989 20.0174 5.4375 19.5924 5.4375 19.1437V11.0688C5.4375 10.5965 5.54989 10.1654 5.77467 9.77533C5.9985 9.38622 6.31111 9.07361 6.7125 8.8375L13.725 4.76458C14.1264 4.55208 14.5514 4.44583 15 4.44583C15.4486 4.44583 15.8736 4.55208 16.275 4.76458L23.2875 8.8375C23.6889 9.07361 24.002 9.38622 24.2267 9.77533C24.4506 10.1654 24.5625 10.5965 24.5625 11.0688V19.1437C24.5625 19.5924 24.4506 20.0174 24.2267 20.4187C24.002 20.8201 23.6889 21.1389 23.2875 21.375L16.275 25.4125C15.8736 25.6486 15.4486 25.7667 15 25.7667C14.5514 25.7667 14.1264 25.6486 13.725 25.4125ZM13.9375 23.075V15.7083L7.5625 12.0604V19.1437C7.5625 19.2146 7.57997 19.2854 7.61492 19.3562C7.65081 19.4271 7.70417 19.4861 7.775 19.5333L13.9375 23.075ZM16.0625 23.075L22.225 19.5333C22.2958 19.4861 22.3487 19.4271 22.3837 19.3562C22.4196 19.2854 22.4375 19.2146 22.4375 19.1437V12.0604L16.0625 15.7083V23.075ZM0.125 6.5V3.95C0.125 2.8875 0.497111 1.98414 1.24133 1.23992C1.98461 0.496639 2.8875 0.125 3.95 0.125H6.5V2.25H3.95C3.45417 2.25 3.04711 2.40914 2.72883 2.72742C2.40961 3.04664 2.25 3.45417 2.25 3.95V6.5H0.125ZM3.95 29.875C2.8875 29.875 1.98461 29.5029 1.24133 28.7587C0.497111 28.0154 0.125 27.1125 0.125 26.05V23.5H2.25V26.05C2.25 26.5458 2.40961 26.9534 2.72883 27.2726C3.04711 27.5909 3.45417 27.75 3.95 27.75H6.5V29.875H3.95ZM23.5 29.7333V27.6083H26.05C26.5458 27.6083 26.9534 27.4487 27.2726 27.1295C27.5909 26.8112 27.75 26.4042 27.75 25.9083V23.3583H29.875V25.9083C29.875 26.9708 29.5029 27.8737 28.7587 28.617C28.0154 29.3612 27.1125 29.7333 26.05 29.7333H23.5ZM27.75 6.5V3.95C27.75 3.45417 27.5909 3.04664 27.2726 2.72742C26.9534 2.40914 26.5458 2.25 26.05 2.25H23.5V0.125H26.05C27.1125 0.125 28.0154 0.496639 28.7587 1.23992C29.5029 1.98414 29.875 2.8875 29.875 3.95V6.5H27.75ZM15 13.8667L21.375 10.1833L15.2125 6.64167C15.1417 6.59444 15.0708 6.57083 15 6.57083C14.9292 6.57083 14.8583 6.59444 14.7875 6.64167L8.625 10.1833L15 13.8667Z" fill="#FF7200"/>
</svg>
