<svg width="32" height="32" viewBox="0 0 32 32" fill="none" xmlns="http://www.w3.org/2000/svg">
<path d="M3.18813 28.7742V23.2055L9.99855 16.3951L3.63965 10.0362C3.41389 9.81042 3.25084 9.55355 3.15051 9.26559C3.05017 8.97661 3 8.69416 3 8.41823C3 8.14231 3.05017 7.86638 3.15051 7.59045C3.25084 7.31452 3.41389 7.06368 3.63965 6.83792L6.72504 3.75253C6.9508 3.52677 7.20766 3.3572 7.49563 3.24382C7.7846 3.13144 8.06705 3.07525 8.34298 3.07525C8.61891 3.07525 8.89484 3.13144 9.17077 3.24382C9.4467 3.3572 9.69754 3.52677 9.9233 3.75253L16.3198 10.1491L23.055 3.41389C23.1804 3.26339 23.3249 3.15653 23.4884 3.09331C23.651 3.0311 23.8201 3 23.9957 3C24.1963 3 24.3784 3.0311 24.542 3.09331C24.7045 3.15653 24.8485 3.26339 24.9739 3.41389L28.5861 7.02605C28.7366 7.17656 28.8435 7.32706 28.9067 7.47757C28.9689 7.62808 29 7.79112 29 7.96671C29 8.16739 28.9689 8.3495 28.9067 8.51305C28.8435 8.6756 28.7366 8.81958 28.5861 8.94501L21.8886 15.6802L28.2475 22.0767C28.4732 22.3025 28.6428 22.5593 28.7562 22.8473C28.8686 23.1363 28.9247 23.4187 28.9247 23.6946C28.9247 23.9706 28.8686 24.2465 28.7562 24.5224C28.6428 24.7984 28.4732 25.0492 28.2475 25.275L25.1621 28.3603C24.9363 28.5861 24.6855 28.7492 24.4095 28.8495C24.1336 28.9498 23.8577 29 23.5818 29C23.3058 29 23.0239 28.9498 22.7359 28.8495C22.4469 28.7492 22.1896 28.5861 21.9638 28.3603L15.5673 21.9638L8.75687 28.7742H3.18813ZM11.6165 14.8148L14.7019 11.7294L12.369 9.3589L10.6006 11.1273L8.98263 9.54703L10.7511 7.77858L8.30535 5.33285L5.21997 8.41823L11.6165 14.8148ZM23.5441 26.7424L26.6671 23.657L24.1838 21.2113L22.4153 22.9797L20.835 21.3994L22.6035 19.5933L20.233 17.2605L17.1476 20.3835L23.5441 26.7424ZM5.44573 26.5166H7.81621L22.3777 11.9928L20.0072 9.58466L5.44573 24.1838V26.5166ZM23.958 10.3748L26.3661 7.96671L23.9957 5.63386L21.6252 8.00434L23.958 10.3748Z" fill="#F56627"/>
</svg>
