<svg width="48" height="48" viewBox="0 0 48 48" fill="none" xmlns="http://www.w3.org/2000/svg">
<path d="M16.0002 39C14.9779 39 14.1113 38.6444 13.4002 37.9333C12.6891 37.2222 12.3335 36.3556 12.3335 35.3333C12.3335 34.3111 12.6891 33.4444 13.4002 32.7333C14.1113 32.0222 14.9779 31.6667 16.0002 31.6667C16.2891 31.6667 16.5726 31.7 16.8508 31.7667C17.1282 31.8333 17.3891 31.9333 17.6335 32.0667L20.2668 28.7667C19.7113 28.1667 19.3282 27.4942 19.1175 26.7493C18.9059 26.0053 18.8668 25.2556 19.0002 24.5L15.1335 23.2333C14.8002 23.7667 14.3615 24.1942 13.8175 24.516C13.2726 24.8387 12.6668 25 12.0002 25C10.9779 25 10.1113 24.6444 9.40016 23.9333C8.68905 23.2222 8.3335 22.3556 8.3335 21.3333C8.3335 20.3111 8.68905 19.4444 9.40016 18.7333C10.1113 18.0222 10.9779 17.6667 12.0002 17.6667C13.0224 17.6667 13.8891 18.0222 14.6002 18.7333C15.3113 19.4444 15.6668 20.3111 15.6668 21.3333C15.6668 21.4222 15.6668 21.4889 15.6668 21.5333C15.6668 21.5778 15.6668 21.6333 15.6668 21.7L19.4668 23.0333C19.8446 22.3444 20.3557 21.7556 21.0002 21.2667C21.6446 20.7778 22.3779 20.4667 23.2002 20.3333V16.2333C22.3557 16.0333 21.6668 15.6 21.1335 14.9333C20.6002 14.2667 20.3335 13.5111 20.3335 12.6667C20.3335 11.6444 20.6891 10.7778 21.4002 10.0667C22.1113 9.35556 22.9779 9 24.0002 9C25.0224 9 25.8891 9.35556 26.6002 10.0667C27.3113 10.7778 27.6668 11.6444 27.6668 12.6667C27.6668 13.5111 27.4002 14.2667 26.8668 14.9333C26.3335 15.6 25.6446 16.0333 24.8002 16.2333V20.3333C25.6224 20.4667 26.3557 20.7778 27.0002 21.2667C27.6446 21.7556 28.1557 22.3444 28.5335 23.0333L32.3335 21.7C32.3335 21.6333 32.3335 21.5778 32.3335 21.5333C32.3335 21.4889 32.3335 21.4222 32.3335 21.3333C32.3335 20.3111 32.6891 19.4444 33.4002 18.7333C34.1113 18.0222 34.9779 17.6667 36.0002 17.6667C37.0224 17.6667 37.8891 18.0222 38.6002 18.7333C39.3113 19.4444 39.6668 20.3111 39.6668 21.3333C39.6668 22.3556 39.3113 23.2222 38.6002 23.9333C37.8891 24.6444 37.0224 25 36.0002 25C35.3335 25 34.7224 24.8387 34.1668 24.516C33.6113 24.1942 33.1779 23.7667 32.8668 23.2333L29.0002 24.5C29.1335 25.2556 29.0948 26 28.8842 26.7333C28.6726 27.4667 28.2891 28.1444 27.7335 28.7667L30.3668 32.0333C30.6113 31.9222 30.8726 31.8333 31.1508 31.7667C31.4282 31.7 31.7113 31.6667 32.0002 31.6667C33.0224 31.6667 33.8891 32.0222 34.6002 32.7333C35.3113 33.4444 35.6668 34.3111 35.6668 35.3333C35.6668 36.3556 35.3113 37.2222 34.6002 37.9333C33.8891 38.6444 33.0224 39 32.0002 39C30.9779 39 30.1113 38.6444 29.4002 37.9333C28.6891 37.2222 28.3335 36.3556 28.3335 35.3333C28.3335 34.9111 28.4002 34.5053 28.5335 34.116C28.6668 33.7276 28.8668 33.3667 29.1335 33.0333L26.5002 29.7333C25.7446 30.1778 24.9113 30.4 24.0002 30.4C23.0891 30.4 22.2446 30.1778 21.4668 29.7333L18.8668 33.0333C19.1113 33.3667 19.3059 33.7276 19.4508 34.116C19.5948 34.5053 19.6668 34.9111 19.6668 35.3333C19.6668 36.3556 19.3113 37.2222 18.6002 37.9333C17.8891 38.6444 17.0224 39 16.0002 39ZM12.0002 23C12.4668 23 12.8615 22.8387 13.1842 22.516C13.5059 22.1942 13.6668 21.8 13.6668 21.3333C13.6668 20.8667 13.5059 20.4724 13.1842 20.1507C12.8615 19.828 12.4668 19.6667 12.0002 19.6667C11.5335 19.6667 11.1388 19.828 10.8162 20.1507C10.4944 20.4724 10.3335 20.8667 10.3335 21.3333C10.3335 21.8 10.4944 22.1942 10.8162 22.516C11.1388 22.8387 11.5335 23 12.0002 23ZM16.0002 37C16.4668 37 16.8615 36.8387 17.1842 36.516C17.5059 36.1942 17.6668 35.8 17.6668 35.3333C17.6668 34.8667 17.5059 34.4724 17.1842 34.1507C16.8615 33.828 16.4668 33.6667 16.0002 33.6667C15.5335 33.6667 15.1393 33.828 14.8175 34.1507C14.4948 34.4724 14.3335 34.8667 14.3335 35.3333C14.3335 35.8 14.4948 36.1942 14.8175 36.516C15.1393 36.8387 15.5335 37 16.0002 37ZM24.0002 14.3333C24.4668 14.3333 24.8611 14.172 25.1828 13.8493C25.5055 13.5276 25.6668 13.1333 25.6668 12.6667C25.6668 12.2 25.5055 11.8053 25.1828 11.4827C24.8611 11.1609 24.4668 11 24.0002 11C23.5335 11 23.1393 11.1609 22.8175 11.4827C22.4948 11.8053 22.3335 12.2 22.3335 12.6667C22.3335 13.1333 22.4948 13.5276 22.8175 13.8493C23.1393 14.172 23.5335 14.3333 24.0002 14.3333ZM24.0002 28.4C24.8668 28.4 25.5948 28.1053 26.1842 27.516C26.7726 26.9276 27.0668 26.2 27.0668 25.3333C27.0668 24.4667 26.7726 23.7387 26.1842 23.1493C25.5948 22.5609 24.8668 22.2667 24.0002 22.2667C23.1335 22.2667 22.4059 22.5609 21.8175 23.1493C21.2282 23.7387 20.9335 24.4667 20.9335 25.3333C20.9335 26.2 21.2282 26.9276 21.8175 27.516C22.4059 28.1053 23.1335 28.4 24.0002 28.4ZM32.0002 37C32.4668 37 32.8615 36.8387 33.1842 36.516C33.5059 36.1942 33.6668 35.8 33.6668 35.3333C33.6668 34.8667 33.5059 34.4724 33.1842 34.1507C32.8615 33.828 32.4668 33.6667 32.0002 33.6667C31.5335 33.6667 31.1393 33.828 30.8175 34.1507C30.4948 34.4724 30.3335 34.8667 30.3335 35.3333C30.3335 35.8 30.4948 36.1942 30.8175 36.516C31.1393 36.8387 31.5335 37 32.0002 37ZM36.0002 23C36.4668 23 36.8615 22.8387 37.1842 22.516C37.5059 22.1942 37.6668 21.8 37.6668 21.3333C37.6668 20.8667 37.5059 20.4724 37.1842 20.1507C36.8615 19.828 36.4668 19.6667 36.0002 19.6667C35.5335 19.6667 35.1393 19.828 34.8175 20.1507C34.4948 20.4724 34.3335 20.8667 34.3335 21.3333C34.3335 21.8 34.4948 22.1942 34.8175 22.516C35.1393 22.8387 35.5335 23 36.0002 23Z" fill="#FF7200"/>
</svg>
