<svg width="32" height="32" viewBox="0 0 32 32" fill="none" xmlns="http://www.w3.org/2000/svg">
<rect x="0.878064" y="3.9878" width="30.2439" height="24.0244" rx="2.5" stroke="#FF7200" stroke-width="0.97561"/>
<path d="M5.07312 8.72766H8.19507C8.47107 8.72766 8.73576 8.61802 8.93092 8.42286C9.12608 8.2277 9.23572 7.96301 9.23572 7.68701V6.64636C9.23572 6.37037 9.12608 6.10567 8.93092 5.91051C8.73576 5.71535 8.47107 5.60571 8.19507 5.60571H5.07312C4.79712 5.60571 4.53243 5.71535 4.33727 5.91051C4.14211 6.10567 4.03247 6.37037 4.03247 6.64636V7.68701C4.03247 7.96301 4.14211 8.2277 4.33727 8.42286C4.53243 8.61802 4.79712 8.72766 5.07312 8.72766ZM5.07312 6.64636H8.19507V7.68701H5.07312V6.64636Z" fill="#FF7200"/>
<path d="M8.19507 11.8496H5.07312C4.79712 11.8496 4.53243 11.9592 4.33727 12.1544C4.14211 12.3496 4.03247 12.6143 4.03247 12.8903V14.9716C4.03247 15.2476 4.14211 15.5123 4.33727 15.7074C4.53243 15.9026 4.79712 16.0122 5.07312 16.0122H8.19507C8.47107 16.0122 8.73576 15.9026 8.93092 15.7074C9.12608 15.5123 9.23572 15.2476 9.23572 14.9716V12.8903C9.23572 12.6143 9.12608 12.3496 8.93092 12.1544C8.73576 11.9592 8.47107 11.8496 8.19507 11.8496ZM5.07312 14.9716V12.8903H8.19507V14.9716H5.07312Z" fill="#FF7200"/>
<path d="M8.19507 17.0527H5.07312C4.79712 17.0527 4.53243 17.1624 4.33727 17.3575C4.14211 17.5527 4.03247 17.8174 4.03247 18.0934V20.1747C4.03247 20.4507 4.14211 20.7154 4.33727 20.9105C4.53243 21.1057 4.79712 21.2153 5.07312 21.2153H8.19507C8.47107 21.2153 8.73576 21.1057 8.93092 20.9105C9.12608 20.7154 9.23572 20.4507 9.23572 20.1747V18.0934C9.23572 17.8174 9.12608 17.5527 8.93092 17.3575C8.73576 17.1624 8.47107 17.0527 8.19507 17.0527ZM5.07312 20.1747V18.0934H8.19507V20.1747H5.07312Z" fill="#FF7200"/>
<path d="M8.19507 22.2561H5.07312C4.79712 22.2561 4.53243 22.3657 4.33727 22.5609C4.14211 22.7561 4.03247 23.0208 4.03247 23.2968V25.3781C4.03247 25.6541 4.14211 25.9187 4.33727 26.1139C4.53243 26.3091 4.79712 26.4187 5.07312 26.4187H8.19507C8.47107 26.4187 8.73576 26.3091 8.93092 26.1139C9.12608 25.9187 9.23572 25.6541 9.23572 25.3781V23.2968C9.23572 23.0208 9.12608 22.7561 8.93092 22.5609C8.73576 22.3657 8.47107 22.2561 8.19507 22.2561ZM5.07312 25.3781V23.2968H8.19507V25.3781H5.07312Z" fill="#FF7200"/>
<path d="M14.439 11.8496H11.317C11.041 11.8496 10.7763 11.9592 10.5812 12.1544C10.386 12.3496 10.2764 12.6143 10.2764 12.8903V14.9716C10.2764 15.2476 10.386 15.5123 10.5812 15.7074C10.7763 15.9026 11.041 16.0122 11.317 16.0122H14.439C14.715 16.0122 14.9797 15.9026 15.1748 15.7074C15.37 15.5123 15.4796 15.2476 15.4796 14.9716V12.8903C15.4796 12.6143 15.37 12.3496 15.1748 12.1544C14.9797 11.9592 14.715 11.8496 14.439 11.8496ZM11.317 14.9716V12.8903H14.439V14.9716H11.317Z" fill="#FF7200"/>
<path d="M20.683 11.8496H17.561C17.285 11.8496 17.0203 11.9592 16.8252 12.1544C16.63 12.3496 16.5204 12.6143 16.5204 12.8903V14.9716C16.5204 15.2476 16.63 15.5123 16.8252 15.7074C17.0203 15.9026 17.285 16.0122 17.561 16.0122H20.683C20.959 16.0122 21.2237 15.9026 21.4188 15.7074C21.614 15.5123 21.7236 15.2476 21.7236 14.9716V12.8903C21.7236 12.6143 21.614 12.3496 21.4188 12.1544C21.2237 11.9592 20.959 11.8496 20.683 11.8496ZM17.561 14.9716V12.8903H20.683V14.9716H17.561Z" fill="#FF7200"/>
<path d="M20.683 17.0527H17.561C17.285 17.0527 17.0203 17.1624 16.8252 17.3575C16.63 17.5527 16.5204 17.8174 16.5204 18.0934V20.1747C16.5204 20.4507 16.63 20.7154 16.8252 20.9105C17.0203 21.1057 17.285 21.2153 17.561 21.2153H20.683C20.959 21.2153 21.2237 21.1057 21.4188 20.9105C21.614 20.7154 21.7236 20.4507 21.7236 20.1747V18.0934C21.7236 17.8174 21.614 17.5527 21.4188 17.3575C21.2237 17.1624 20.959 17.0527 20.683 17.0527ZM17.561 20.1747V18.0934H20.683V20.1747H17.561Z" fill="#FF7200"/>
<path d="M26.9268 11.8496H23.8048C23.5288 11.8496 23.2641 11.9592 23.069 12.1544C22.8738 12.3496 22.7642 12.6143 22.7642 12.8903V14.9716C22.7642 15.2476 22.8738 15.5123 23.069 15.7074C23.2641 15.9026 23.5288 16.0122 23.8048 16.0122H26.9268C27.2028 16.0122 27.4675 15.9026 27.6626 15.7074C27.8578 15.5123 27.9674 15.2476 27.9674 14.9716V12.8903C27.9674 12.6143 27.8578 12.3496 27.6626 12.1544C27.4675 11.9592 27.2028 11.8496 26.9268 11.8496ZM23.8048 14.9716V12.8903H26.9268V14.9716H23.8048Z" fill="#FF7200"/>
<path d="M26.9268 17.0527H23.8048C23.5288 17.0527 23.2641 17.1624 23.069 17.3575C22.8738 17.5527 22.7642 17.8174 22.7642 18.0934V20.1747C22.7642 20.4507 22.8738 20.7154 23.069 20.9105C23.2641 21.1057 23.5288 21.2153 23.8048 21.2153H26.9268C27.2028 21.2153 27.4675 21.1057 27.6626 20.9105C27.8578 20.7154 27.9674 20.4507 27.9674 20.1747V18.0934C27.9674 17.8174 27.8578 17.5527 27.6626 17.3575C27.4675 17.1624 27.2028 17.0527 26.9268 17.0527ZM23.8048 20.1747V18.0934H26.9268V20.1747H23.8048Z" fill="#FF7200"/>
<path d="M26.9268 22.2561H23.8048C23.5288 22.2561 23.2641 22.3657 23.069 22.5609C22.8738 22.7561 22.7642 23.0208 22.7642 23.2968V25.3781C22.7642 25.6541 22.8738 25.9187 23.069 26.1139C23.2641 26.3091 23.5288 26.4187 23.8048 26.4187H26.9268C27.2028 26.4187 27.4675 26.3091 27.6626 26.1139C27.8578 25.9187 27.9674 25.6541 27.9674 25.3781V23.2968C27.9674 23.0208 27.8578 22.7561 27.6626 22.5609C27.4675 22.3657 27.2028 22.2561 26.9268 22.2561ZM23.8048 25.3781V23.2968H26.9268V25.3781H23.8048Z" fill="#FF7200"/>
<path d="M11.317 8.72766H14.439C14.715 8.72766 14.9797 8.61802 15.1748 8.42286C15.37 8.2277 15.4796 7.96301 15.4796 7.68701V6.64636C15.4796 6.37037 15.37 6.10567 15.1748 5.91051C14.9797 5.71535 14.715 5.60571 14.439 5.60571H11.317C11.041 5.60571 10.7763 5.71535 10.5812 5.91051C10.386 6.10567 10.2764 6.37037 10.2764 6.64636V7.68701C10.2764 7.96301 10.386 8.2277 10.5812 8.42286C10.7763 8.61802 11.041 8.72766 11.317 8.72766ZM11.317 6.64636H14.439V7.68701H11.317V6.64636Z" fill="#FF7200"/>
<path d="M17.561 8.72766H20.683C20.959 8.72766 21.2237 8.61802 21.4188 8.42286C21.614 8.2277 21.7236 7.96301 21.7236 7.68701V6.64636C21.7236 6.37037 21.614 6.10567 21.4188 5.91051C21.2237 5.71535 20.959 5.60571 20.683 5.60571H17.561C17.285 5.60571 17.0203 5.71535 16.8252 5.91051C16.63 6.10567 16.5204 6.37037 16.5204 6.64636V7.68701C16.5204 7.96301 16.63 8.2277 16.8252 8.42286C17.0203 8.61802 17.285 8.72766 17.561 8.72766ZM17.561 6.64636H20.683V7.68701H17.561V6.64636Z" fill="#FF7200"/>
<path d="M23.8048 8.72766H26.9268C27.2028 8.72766 27.4675 8.61802 27.6626 8.42286C27.8578 8.2277 27.9674 7.96301 27.9674 7.68701V6.64636C27.9674 6.37037 27.8578 6.10567 27.6626 5.91051C27.4675 5.71535 27.2028 5.60571 26.9268 5.60571H23.8048C23.5288 5.60571 23.2641 5.71535 23.069 5.91051C22.8738 6.10567 22.7642 6.37037 22.7642 6.64636V7.68701C22.7642 7.96301 22.8738 8.2277 23.069 8.42286C23.2641 8.61802 23.5288 8.72766 23.8048 8.72766ZM23.8048 6.64636H26.9268V7.68701H23.8048V6.64636Z" fill="#FF7200"/>
<path d="M29.008 9.76807H2.99176C2.85376 9.76807 2.72142 9.82289 2.62384 9.92047C2.52626 10.018 2.47144 10.1504 2.47144 10.2884C2.47144 10.4264 2.52626 10.5587 2.62384 10.6563C2.72142 10.7539 2.85376 10.8087 2.99176 10.8087H29.008C29.146 10.8087 29.2784 10.7539 29.376 10.6563C29.4735 10.5587 29.5284 10.4264 29.5284 10.2884C29.5284 10.1504 29.4735 10.018 29.376 9.92047C29.2784 9.82289 29.146 9.76807 29.008 9.76807Z" fill="#FF7200"/>
</svg>
