<svg width="23" height="21" viewBox="0 0 23 21" fill="none" xmlns="http://www.w3.org/2000/svg">
<path d="M7.26316 21V19.2H9.68421V16.8H2.17895C1.57368 16.8 1.05921 16.59 0.635526 16.17C0.211842 15.75 0 15.24 0 14.64V2.16C0 1.56 0.211842 1.05 0.635526 0.63C1.05921 0.21 1.57368 0 2.17895 0H20.8211C21.4263 0 21.9408 0.21 22.3645 0.63C22.7882 1.05 23 1.56 23 2.16V14.64C23 15.24 22.7882 15.75 22.3645 16.17C21.9408 16.59 21.4263 16.8 20.8211 16.8H13.3158V19.2H15.7368V21H7.26316ZM2.17895 15H20.8211C20.9018 15 20.9825 14.96 21.0632 14.88C21.1439 14.8 21.1842 14.72 21.1842 14.64V2.16C21.1842 2.08 21.1439 2 21.0632 1.92C20.9825 1.84 20.9018 1.8 20.8211 1.8H2.17895C2.09825 1.8 2.01754 1.84 1.93684 1.92C1.85614 2 1.81579 2.08 1.81579 2.16V14.64C1.81579 14.72 1.85614 14.8 1.93684 14.88C2.01754 14.96 2.09825 15 2.17895 15Z" fill="#F56627"/>
</svg>
