<svg width="32" height="32" viewBox="0 0 32 32" fill="none" xmlns="http://www.w3.org/2000/svg">
<path d="M11.3846 11.6667V9.80952H20.6154V11.6667H11.3846ZM10.2154 29C9.6 29 9.07692 28.7833 8.64615 28.35C8.21538 27.9167 8 27.3905 8 26.7714V5.22857C8 4.60952 8.21538 4.08333 8.64615 3.65C9.07692 3.21667 9.6 3 10.2154 3H21.7846C22.4 3 22.9231 3.21667 23.3538 3.65C23.7846 4.08333 24 4.60952 24 5.22857V26.7714C24 27.3905 23.7846 27.9167 23.3538 28.35C22.9231 28.7833 22.4 29 21.7846 29H10.2154ZM9.84615 23.7381H22.1538V8.2619H9.84615V23.7381ZM9.84615 25.5952V26.7714C9.84615 26.854 9.88718 26.9365 9.96923 27.019C10.0513 27.1016 10.1333 27.1429 10.2154 27.1429H21.7846C21.8667 27.1429 21.9487 27.1016 22.0308 27.019C22.1128 26.9365 22.1538 26.854 22.1538 26.7714V25.5952H9.84615ZM9.84615 6.40476H22.1538V5.22857C22.1538 5.14603 22.1128 5.06349 22.0308 4.98095C21.9487 4.89841 21.8667 4.85714 21.7846 4.85714H10.2154C10.1333 4.85714 10.0513 4.89841 9.96923 4.98095C9.88718 5.06349 9.84615 5.14603 9.84615 5.22857V6.40476Z" fill="#F56627"/>
</svg>
