<svg width="32" height="28" viewBox="0 0 32 28" fill="none" xmlns="http://www.w3.org/2000/svg">
<path d="M27.7895 28C26.7789 28 25.888 27.6915 25.1166 27.0744C24.3441 26.4562 23.8596 25.6667 23.6632 24.7059H14.3158C12.6877 24.7059 11.2982 24.1431 10.1474 23.0176C8.99649 21.8922 8.42105 20.5333 8.42105 18.9412C8.42105 17.349 8.99649 15.9902 10.1474 14.8647C11.2982 13.7392 12.6877 13.1765 14.3158 13.1765H17.6842C18.8351 13.1765 19.8243 12.7713 20.6518 11.9609C21.4804 11.1517 21.8947 10.1843 21.8947 9.05882C21.8947 7.93333 21.4804 6.96541 20.6518 6.15506C19.8243 5.3458 18.8351 4.94118 17.6842 4.94118H8.33684C8.14035 5.90196 7.65642 6.69145 6.88505 7.30965C6.11256 7.92675 5.22105 8.23529 4.21053 8.23529C3.03158 8.23529 2.03509 7.83726 1.22105 7.04118C0.407017 6.2451 0 5.27059 0 4.11765C0 2.96471 0.407017 1.9902 1.22105 1.19412C2.03509 0.398039 3.03158 0 4.21053 0C5.22105 0 6.11256 0.308549 6.88505 0.925647C7.65642 1.54384 8.14035 2.33333 8.33684 3.29412H17.6842C19.3123 3.29412 20.7018 3.85686 21.8526 4.98235C23.0035 6.10784 23.5789 7.46667 23.5789 9.05882C23.5789 10.651 23.0035 12.0098 21.8526 13.1353C20.7018 14.2608 19.3123 14.8235 17.6842 14.8235H14.3158C13.1649 14.8235 12.1757 15.2287 11.3482 16.0391C10.5196 16.8483 10.1053 17.8157 10.1053 18.9412C10.1053 20.0667 10.5196 21.034 11.3482 21.8433C12.1757 22.6536 13.1649 23.0588 14.3158 23.0588H23.6632C23.8596 22.098 24.3441 21.3085 25.1166 20.6904C25.888 20.0733 26.7789 19.7647 27.7895 19.7647C28.9684 19.7647 29.9649 20.1627 30.7789 20.9588C31.593 21.7549 32 22.7294 32 23.8824C32 25.0353 31.593 26.0098 30.7789 26.8059C29.9649 27.602 28.9684 28 27.7895 28ZM4.21053 6.58824C4.91228 6.58824 5.50849 6.34776 5.99916 5.86682C6.49095 5.38698 6.73684 4.80392 6.73684 4.11765C6.73684 3.43137 6.49095 2.84831 5.99916 2.36847C5.50849 1.88753 4.91228 1.64706 4.21053 1.64706C3.50877 1.64706 2.91256 1.88753 2.42189 2.36847C1.93011 2.84831 1.68421 3.43137 1.68421 4.11765C1.68421 4.80392 1.93011 5.38698 2.42189 5.86682C2.91256 6.34776 3.50877 6.58824 4.21053 6.58824Z" fill="#FF7200"/>
</svg>
