<svg width="32" height="32" viewBox="0 0 32 32" fill="none" xmlns="http://www.w3.org/2000/svg">
<path d="M9.4268 11.1988C9.09867 10.5051 8.91992 9.7382 8.91992 8.9482C8.91992 6.03445 11.2924 3.66445 14.208 3.66445C14.4724 3.66445 14.733 3.6832 14.9899 3.72133L14.3449 4.18758C13.9249 4.49133 13.8312 5.07758 14.1349 5.49695C14.4399 5.91914 15.0286 6.00845 15.4437 5.70695L17.5802 4.16139C17.9749 3.88558 18.0861 3.30495 17.8234 2.90139L16.267 0.437014C16.1957 0.324514 16.1051 0.232639 16.0014 0.162639V0.163202L16.0012 0.162577C15.7018 -0.0411734 15.2987 -0.0605484 14.973 0.145077C14.5355 0.421327 14.4049 1.00008 14.6812 1.4382L14.9268 1.82633C14.688 1.80258 14.448 1.78945 14.208 1.78945C10.258 1.78945 7.04498 5.0007 7.04498 8.9482C7.04498 10.3232 7.44436 11.6476 8.15998 12.7763C8.5368 12.2201 8.96055 11.692 9.4268 11.1988Z" fill="#FF7200"/>
<path d="M10.3815 26.3774H6.63117C6.11298 26.3774 5.6936 26.7974 5.6936 27.3149V31.0624C5.6936 31.5799 6.11304 31.9999 6.63117 31.9999H10.3815C10.899 31.9999 11.319 31.5799 11.319 31.0624V27.3149C11.319 26.7974 10.899 26.3774 10.3815 26.3774Z" fill="#FF7200"/>
<path d="M0 29.1912C0 29.7087 0.42 30.1287 0.9375 30.1287H3.81875V28.2537H0.9375C0.42 28.2537 0 28.6737 0 29.1912Z" fill="#FF7200"/>
<path d="M31.7274 28.5281L29.8549 26.6568C28.9411 25.8131 27.6849 27.0693 28.5299 27.9831L28.8005 28.2537H24.3905C32.7167 22.4387 28.7024 9.26064 18.4143 9.18377C13.6086 9.13939 9.24994 12.6169 8.20244 17.2975L7.90619 16.9225C7.09681 15.9781 5.70244 17.0794 6.43556 18.0856L8.13681 20.2375C8.44494 20.6431 9.07931 20.7119 9.46681 20.3806L11.4631 18.7419C11.8637 18.4138 11.9212 17.8225 11.5931 17.4225C11.2643 17.0225 10.6737 16.9644 10.2731 17.2931L10.1018 17.4338C11.0681 13.7275 14.5768 11.025 18.4149 11.0588C29.8292 11.5313 29.8267 27.7825 18.4143 28.2537H13.1943V30.1287H28.8004L28.5298 30.3993C28.1636 30.7656 28.1629 31.3587 28.5292 31.725C28.8954 32.0912 29.4886 32.0918 29.8548 31.7256L31.7273 29.8543C31.7279 29.8543 31.7279 29.8537 31.7279 29.8537C32.0911 29.5043 32.0905 28.8768 31.7274 28.5281Z" fill="#FF7200"/>
</svg>
