<svg width="32" height="32" viewBox="0 0 32 32" fill="none" xmlns="http://www.w3.org/2000/svg">
<path d="M31.4936 28.4445L28.81 26.8199C28.4795 26.6207 28.0674 26.6145 27.7312 26.8039C27.4013 26.9846 27.1966 27.3312 27.1979 27.7074V28.8002H22.9316C19.313 28.7944 16.3066 26.0081 16.026 22.4001H18.6652C19.5488 22.4001 20.2651 21.6838 20.2651 20.8001V17.6001C20.2651 16.7165 19.5488 16.0001 18.6652 16.0001H15.9988V13.3334H18.6652C19.5488 13.3334 20.2651 12.6171 20.2651 11.7334V8.53339C20.2651 7.64973 19.5488 6.93338 18.6652 6.93338H15.9988V4.2667H16.532C17.1211 4.2667 17.5986 3.78913 17.5986 3.20002V1.06667C17.5986 0.477566 17.1211 0 16.532 0H14.3989C13.8098 0 13.3323 0.477566 13.3323 1.06667V3.20002C13.3323 3.78913 13.8098 4.2667 14.3989 4.2667H14.9322V6.93338H12.2657C11.3821 6.93338 10.6658 7.64973 10.6658 8.53339V11.7334C10.6658 12.6171 11.3821 13.3334 12.2657 13.3334H14.9322V16.0001H12.2657C11.3821 16.0001 10.6658 16.7165 10.6658 17.6001V20.8001C10.6658 21.6838 11.3821 22.4001 12.2657 22.4001H14.9594C15.1394 25.0679 16.6402 27.4693 18.9591 28.8002H12.2657C8.64715 28.7944 5.64077 26.0081 5.36012 22.4001H7.99938C8.88297 22.4001 9.59925 21.6838 9.59925 20.8001V17.6001C9.59925 16.7165 8.88297 16.0001 7.99938 16.0001H5.33292V13.3334H7.99938C8.88297 13.3334 9.59925 12.6171 9.59925 11.7334V8.53339C9.59925 7.64973 8.88297 6.93338 7.99938 6.93338H5.33292V4.2667H5.86621C6.45527 4.2667 6.93279 3.78913 6.93279 3.20002V1.06667C6.93279 0.477566 6.45527 0 5.86621 0H3.73304C3.14399 0 2.66646 0.477566 2.66646 1.06667V3.20002C2.66646 3.78913 3.14399 4.2667 3.73304 4.2667H4.26634V6.93338H1.59988C0.716289 6.93338 0 7.64973 0 8.53339V11.7334C0 12.6171 0.716289 13.3334 1.59988 13.3334H4.26634V16.0001H1.59988C0.716289 16.0001 0 16.7165 0 17.6001V20.8001C0 21.6838 0.716289 22.4001 1.59988 22.4001H4.29353C4.47355 25.0679 5.97433 27.4693 8.29322 28.8002H0.533292C0.238763 28.8002 0 29.039 0 29.3335C0 29.6281 0.238763 29.8669 0.533292 29.8669H27.1979V30.9602C27.1971 31.3357 27.4017 31.6815 27.7312 31.8615C28.067 32.0517 28.4794 32.0456 28.8095 31.8455L31.4962 30.2189C31.8086 30.0325 32 29.6955 32 29.3317C32 28.9678 31.8086 28.6308 31.4962 28.4445H31.4936ZM14.3989 1.06667H16.532V3.20002H14.3989V1.06667ZM11.7324 11.7334V8.53339C11.7324 8.23884 11.9712 8.00005 12.2657 8.00005H18.6652C18.9597 8.00005 19.1985 8.23884 19.1985 8.53339V11.7334C19.1985 12.028 18.9597 12.2667 18.6652 12.2667H12.2657C11.9712 12.2667 11.7324 12.028 11.7324 11.7334ZM11.7324 20.8001V17.6001C11.7324 17.3056 11.9712 17.0668 12.2657 17.0668H18.6652C18.9597 17.0668 19.1985 17.3056 19.1985 17.6001V20.8001C19.1985 21.0947 18.9597 21.3335 18.6652 21.3335H12.2657C11.9712 21.3335 11.7324 21.0947 11.7324 20.8001ZM3.73304 1.06667H5.86621V3.20002H3.73304V1.06667ZM1.06658 11.7334V8.53339C1.06658 8.23884 1.30535 8.00005 1.59988 8.00005H7.99938C8.29391 8.00005 8.53267 8.23884 8.53267 8.53339V11.7334C8.53267 12.028 8.29391 12.2667 7.99938 12.2667H1.59988C1.30535 12.2667 1.06658 12.028 1.06658 11.7334ZM1.06658 20.8001V17.6001C1.06658 17.3056 1.30535 17.0668 1.59988 17.0668H7.99938C8.29391 17.0668 8.53267 17.3056 8.53267 17.6001V20.8001C8.53267 21.0947 8.29391 21.3335 7.99938 21.3335H1.59988C1.30535 21.3335 1.06658 21.0947 1.06658 20.8001Z" fill="#FF7200"/>
</svg>
