<svg width="47" height="26" viewBox="0 0 47 26" fill="none" xmlns="http://www.w3.org/2000/svg">
<path d="M23.5 4C20.475 4 18 6.25 18 9C18 11.75 20.475 14 23.5 14C26.525 14 29 11.75 29 9C29 6.25 26.525 4 23.5 4Z" fill="#FF7200"/>
<path d="M28.2506 17H18.7494C16.1246 17 14 19.2142 14 21.9496V24.6499C14 25.387 14.5882 26 15.2955 26H31.7045C32.4118 26 33 25.387 33 24.6499V21.9496C33 19.2142 30.8754 17 28.2506 17Z" fill="#FF7200"/>
<path d="M41.0001 0C39.0895 0 37.5264 1.43182 37.5264 3.18182C37.5264 4.93182 39.0895 6.36364 41.0001 6.36364C42.9106 6.36364 44.4737 4.93182 44.4737 3.18182C44.4737 1.43182 42.9106 0 41.0001 0Z" fill="#FF7200"/>
<path d="M44.0004 8.27271H37.9996C36.3419 8.27271 35 9.68176 35 11.4224V13.1408C35 13.6099 35.3715 14 35.8182 14H46.1818C46.6285 14 47 13.6099 47 13.1408V11.4224C47 9.68176 45.6581 8.27271 44.0004 8.27271Z" fill="#FF7200"/>
<path d="M6.00005 0C4.08952 0 2.52637 1.43182 2.52637 3.18182C2.52637 4.93182 4.08952 6.36364 6.00005 6.36364C7.91058 6.36364 9.47374 4.93182 9.47374 3.18182C9.47374 1.43182 7.91058 0 6.00005 0Z" fill="#FF7200"/>
<path d="M9.00041 8.27271H2.99959C1.34188 8.27271 0 9.68176 0 11.4224V13.1408C0 13.6099 0.371471 14 0.818219 14H11.1818C11.6285 14 12 13.6099 12 13.1408V11.4224C12 9.68176 10.6581 8.27271 9.00041 8.27271Z" fill="#FF7200"/>
</svg>
