<svg width="42" height="32" viewBox="0 0 42 32" fill="none" xmlns="http://www.w3.org/2000/svg">
<path fill-rule="evenodd" clip-rule="evenodd" d="M2.2943 23.3367L2.29257 23.3386C2.10068 23.5487 2 23.7792 2 24.1441V29.5H10.6158V24.2937C10.4714 24.1082 10.3311 23.9181 10.1948 23.7233C10.0124 23.4701 9.80785 23.2922 9.57487 23.1633C9.35081 23.0401 9.14682 22.9915 8.93617 22.9915H2.94281C2.67234 23.0273 2.48115 23.1316 2.2943 23.3367ZM2.83855 20.9915C2.03254 21.0616 1.3583 21.3944 0.81582 21.9898C0.27194 22.5853 0 23.3034 0 24.1441V31.5H12.6158V26.4559C13.2502 26.9596 13.9169 27.401 14.6158 27.7803C15.2293 28.1132 15.8677 28.3983 16.5309 28.6354C17.9508 29.144 19.4318 29.3983 20.9737 29.3983C22.5507 29.3983 24.0576 29.144 25.4944 28.6354C26.1539 28.4026 26.7838 28.1199 27.3842 27.7873C28.0919 27.3953 28.7586 26.934 29.3842 26.4034V31.5H42V24.1441C42 23.3034 41.7197 22.5853 41.159 21.9898C40.5983 21.3944 39.9149 21.0616 39.1089 20.9915H33.0113C32.4856 20.9915 31.9691 21.1316 31.4616 21.4119C30.9528 21.6921 30.5232 22.0774 30.1727 22.5678C29.1214 24.074 27.7897 25.239 26.1777 26.0629C24.5657 26.8854 22.831 27.2966 20.9737 27.2966C19.1164 27.2966 17.3908 26.8854 15.797 26.0629C14.2019 25.239 12.8786 24.074 11.8273 22.5678C11.4768 22.0774 11.0479 21.6921 10.5405 21.4119C10.0316 21.1316 9.49687 20.9915 8.93617 20.9915H2.83855ZM31.3842 24.2933C31.5287 24.108 31.669 23.918 31.8051 23.7234C31.9871 23.4708 32.1919 23.2929 32.4264 23.1638L32.4285 23.1626C32.671 23.0287 32.8576 22.9915 33.0113 22.9915H39.0046C39.2808 23.028 39.4921 23.137 39.7029 23.3609C39.9036 23.574 40 23.7973 40 24.1441V29.5H31.3842V24.2933ZM32.8809 15.7373C33.914 16.7881 35.1489 17.3136 36.5857 17.3136C38.0576 17.3136 39.3016 16.7881 40.3179 15.7373C41.3342 14.6864 41.8423 13.4605 41.8423 12.0593C41.8423 10.5881 41.3342 9.34463 40.3179 8.32881C39.3016 7.31299 38.0576 6.80508 36.5857 6.80508C35.1489 6.80508 33.914 7.31299 32.8809 8.32881C31.8464 9.34463 31.3292 10.5881 31.3292 12.0593C31.3292 13.4605 31.8464 14.6864 32.8809 15.7373ZM17.2689 2.02373C18.302 1.00791 19.5369 0.5 20.9737 0.5C22.4456 0.5 23.6896 1.00791 24.7059 2.02373C25.7222 3.03955 26.2303 4.28305 26.2303 5.75424C26.2303 7.15537 25.7222 8.38136 24.7059 9.4322C23.6896 10.4831 22.4456 11.0085 20.9737 11.0085C19.5369 11.0085 18.302 10.4831 17.2689 9.4322C16.2344 8.38136 15.7171 7.15537 15.7171 5.75424C15.7171 4.28305 16.2344 3.03955 17.2689 2.02373ZM13.1414 18.7049C13.8073 19.1785 14.3855 19.7655 14.8761 20.4661C15.612 21.4469 16.514 22.2175 17.5822 22.778C18.6517 23.3384 19.7822 23.6186 20.9737 23.6186C22.2003 23.6186 23.3567 23.3475 24.4431 22.8053C25.5294 22.2616 26.423 21.4819 27.1239 20.4661C27.6145 19.7655 28.1927 19.1785 28.8586 18.7049C28.8844 18.6866 28.9103 18.6684 28.9363 18.6505C29.5803 18.2064 30.2727 17.8834 31.0138 17.6814C30.4325 17.1778 29.712 16.7439 28.8522 16.3796C28.1569 16.0849 27.3706 15.8358 26.4931 15.6322C24.5307 15.1768 22.6909 14.9492 20.9737 14.9492C19.2566 14.9492 17.4168 15.1768 15.4543 15.6322C14.5865 15.8336 13.8112 16.0795 13.1285 16.3699C12.2672 16.7362 11.5531 17.1733 10.9862 17.6814C11.7225 17.8821 12.4109 18.2023 13.0513 18.642C13.0814 18.6627 13.1115 18.6836 13.1414 18.7049ZM15.1631 17.7725C15.3973 17.7053 15.6448 17.6411 15.9064 17.5804C17.7454 17.1537 19.4323 16.9492 20.9737 16.9492C22.5152 16.9492 24.202 17.1537 26.041 17.5804C26.3168 17.6444 26.5778 17.7123 26.8247 17.7838C26.3277 18.2408 25.8814 18.7538 25.4857 19.3188L25.4777 19.3303C24.9653 20.073 24.3286 20.6259 23.5492 21.0162C22.7433 21.4183 21.8932 21.6186 20.9737 21.6186C20.1104 21.6186 19.2983 21.4191 18.5114 21.007M15.1631 17.7725C15.6561 18.2243 16.0995 18.731 16.4932 19.2888C17.0502 20.0245 17.7186 20.5908 18.5105 21.0065M34.2831 9.7549L34.2822 9.75585C33.637 10.3894 33.3292 11.116 33.3292 12.0593C33.3292 12.9057 33.6185 13.6357 34.3062 14.3342L34.3071 14.3352C34.975 15.0146 35.7005 15.3136 36.5857 15.3136C37.5197 15.3136 38.2437 15.0051 38.8802 14.3469C39.5531 13.6511 39.8423 12.9172 39.8423 12.0593C39.8423 11.1045 39.5351 10.3742 38.904 9.74334C38.2729 9.11249 37.5417 8.80508 36.5857 8.80508C35.6784 8.80508 34.9457 9.10342 34.2831 9.7549ZM18.6941 8.02912L18.6951 8.03009C19.363 8.70948 20.0885 9.00847 20.9737 9.00847C21.9077 9.00847 22.6316 8.70006 23.2682 8.04184C23.9411 7.34603 24.2303 6.61209 24.2303 5.75424C24.2303 4.79946 23.9231 4.06907 23.292 3.43826C22.6609 2.8074 21.9297 2.5 20.9737 2.5C20.0664 2.5 19.3337 2.79834 18.6711 3.44981L18.6702 3.45076C18.0249 4.08433 17.7171 4.8109 17.7171 5.75424C17.7171 6.6006 18.0065 7.33064 18.6941 8.02912ZM3.08098 14.3352C3.75038 15.0147 4.47682 15.3136 5.3617 15.3136C6.29568 15.3136 7.01963 15.0051 7.6562 14.3469C8.32911 13.6511 8.61827 12.9172 8.61827 12.0593C8.61827 11.1045 8.31106 10.3742 7.67997 9.74334C7.04883 9.11249 6.3177 8.80508 5.3617 8.80508C4.45479 8.80508 3.72109 9.10322 3.05701 9.7549M3.08098 14.3352C2.3947 13.637 2.10513 12.9065 2.10513 12.0593C2.10513 11.1153 2.4131 10.3882 3.05701 9.7549M1.65477 15.7373C2.68926 16.7881 3.92491 17.3136 5.3617 17.3136C6.83354 17.3136 8.0776 16.7881 9.09387 15.7373C10.1101 14.6864 10.6183 13.4605 10.6183 12.0593C10.6183 10.5881 10.1101 9.34463 9.09387 8.32881C8.0776 7.31299 6.83354 6.80508 5.3617 6.80508C3.92491 6.80508 2.68926 7.31299 1.65477 8.32881C0.621677 9.34463 0.105131 10.5881 0.105131 12.0593C0.105131 13.4605 0.621677 14.6864 1.65477 15.7373Z" fill="#FF7200"/>
</svg>
