<svg width="31" height="24" viewBox="0 0 31 24" fill="none" xmlns="http://www.w3.org/2000/svg">
<path d="M4.55789 23C3.84737 23 3.24342 22.755 2.74605 22.265C2.24868 21.775 2 21.18 2 20.48V4.52C2 3.82 2.24868 3.225 2.74605 2.735C3.24342 2.245 3.84737 2 4.55789 2H26.4421C27.1526 2 27.7566 2.245 28.2539 2.735C28.7513 3.225 29 3.82 29 4.52V20.48C29 21.18 28.7513 21.775 28.2539 22.265C27.7566 22.755 27.1526 23 26.4421 23H4.55789ZM4.55789 20.9H26.4421C26.5368 20.9 26.6316 20.8533 26.7263 20.76C26.8211 20.6667 26.8684 20.5733 26.8684 20.48V6.9C26.8684 6.34772 26.4207 5.9 25.8684 5.9H5.13158C4.5793 5.9 4.13158 6.34772 4.13158 6.9V20.48C4.13158 20.5733 4.17895 20.6667 4.27368 20.76C4.36842 20.8533 4.46316 20.9 4.55789 20.9ZM16.8553 19.15C16.303 19.15 15.8553 18.7023 15.8553 18.15V18.05C15.8553 17.4977 16.303 17.05 16.8553 17.05H22.6711C23.2233 17.05 23.6711 17.4977 23.6711 18.05V18.15C23.6711 18.7023 23.2233 19.15 22.6711 19.15H16.8553ZM9.80707 18.3186C9.41779 18.7021 8.79273 18.7021 8.40345 18.3186L8.33275 18.2489C7.93651 17.8586 7.93497 17.2199 8.32932 16.8276L10.5562 14.6124C10.9506 14.2201 10.949 13.5814 10.5528 13.1911L8.30926 10.9808C7.90839 10.5859 7.9122 9.93805 8.31769 9.54786L8.40367 9.46512C8.79414 9.08938 9.41284 9.09302 9.79887 9.47333L13.569 13.1876C13.9666 13.5793 13.9666 14.2207 13.569 14.6124L9.80707 18.3186Z" fill="#F56627"/>
</svg>
