<svg width="48" height="48" viewBox="0 0 48 48" fill="none" xmlns="http://www.w3.org/2000/svg">
<path d="M11 38C10.4477 38 10 37.5523 10 37V32.068C10 31.5157 10.4477 31.068 11 31.068H12.4466V16.932H11C10.4477 16.932 10 16.4843 10 15.932V11C10 10.4477 10.4477 10 11 10H15.932C16.4843 10 16.932 10.4477 16.932 11V12.4466H31.068V11C31.068 10.4477 31.5157 10 32.068 10H37C37.5523 10 38 10.4477 38 11V15.932C38 16.4843 37.5523 16.932 37 16.932H35.5534V31.068H37C37.5523 31.068 38 31.5157 38 32.068V37C38 37.5523 37.5523 38 37 38H32.068C31.5157 38 31.068 37.5523 31.068 37V35.5534H16.932V37C16.932 37.5523 16.4843 38 15.932 38H11ZM16.932 33.5146H31.068V32.068C31.068 31.5157 31.5157 31.068 32.068 31.068H33.5146V16.932H32.068C31.5157 16.932 31.068 16.4843 31.068 15.932V14.4854H16.932V15.932C16.932 16.4843 16.4843 16.932 15.932 16.932H14.4854V31.068H15.932C16.4843 31.068 16.932 31.5157 16.932 32.068V33.5146ZM18.5291 29.4369L23.2524 17.2039H24.7476L29.4709 29.4369H27.7718L26.5146 26.1068H21.5194L20.2621 29.4369H18.5291ZM22.0291 24.6796H25.9709L24.068 19.3786H23.932L22.0291 24.6796ZM12.0388 14.8932H14.8932V12.0388H12.0388V14.8932ZM33.1068 14.8932H35.9612V12.0388H33.1068V14.8932ZM33.1068 35.9612H35.9612V33.1068H33.1068V35.9612ZM12.0388 35.9612H14.8932V33.1068H12.0388V35.9612Z" fill="#F56627"/>
</svg>
