<svg width="23" height="23" viewBox="0 0 23 23" fill="none" xmlns="http://www.w3.org/2000/svg">
<path d="M11.427 0.333496C9.41311 0.333496 7.55547 0.836968 5.85409 1.84391C4.1527 2.81614 2.79853 4.15294 1.79159 5.85433C0.819363 7.55572 0.333252 9.41336 0.333252 11.4272C0.333252 13.2675 0.732558 14.9863 1.53117 16.5835C2.3645 18.146 3.49297 19.4481 4.91659 20.4897C6.3402 21.5314 7.93742 22.1738 9.70825 22.4168V14.6564H6.89575V11.4272H9.70825V8.97933C9.70825 7.62516 10.0728 6.56614 10.802 5.80225C11.5659 5.03836 12.5902 4.65641 13.8749 4.65641C14.7083 4.65641 15.5416 4.72586 16.3749 4.86475V7.62516H14.9687C14.3437 7.62516 13.8749 7.79877 13.5624 8.146C13.2846 8.4585 13.1458 8.8578 13.1458 9.34391V11.4272H16.2708L15.7499 14.6564H13.1458V22.4168C14.9513 22.1391 16.5659 21.4793 17.9895 20.4377C19.4131 19.396 20.5242 18.0939 21.3228 16.5314C22.1214 14.9342 22.5208 13.2328 22.5208 11.4272C22.5208 9.41336 22.0173 7.55572 21.0103 5.85433C20.0381 4.15294 18.7013 2.81614 16.9999 1.84391C15.2985 0.836968 13.4409 0.333496 11.427 0.333496Z" fill="#22222A"/>
</svg>
