<svg width="21" height="21" viewBox="0 0 21 21" fill="none" xmlns="http://www.w3.org/2000/svg">
<path d="M18.0937 0.666504C18.7187 0.666504 19.2395 0.892198 19.6562 1.34359C20.1076 1.76025 20.3333 2.28109 20.3333 2.90609V18.4269C20.3333 19.0519 20.1076 19.5901 19.6562 20.0415C19.2395 20.4582 18.7187 20.6665 18.0937 20.6665H2.57284C1.94784 20.6665 1.40964 20.4582 0.958252 20.0415C0.541585 19.5901 0.333252 19.0519 0.333252 18.4269V2.90609C0.333252 2.28109 0.541585 1.76025 0.958252 1.34359C1.40964 0.892198 1.94784 0.666504 2.57284 0.666504H18.0937ZM17.5728 17.9061V12.0207C17.5728 11.0137 17.2083 10.163 16.4791 9.46859C15.7846 8.73942 14.9339 8.37484 13.927 8.37484C13.4409 8.37484 12.9548 8.51373 12.4687 8.7915C11.9826 9.06928 11.618 9.4165 11.3749 9.83317V8.58317H8.24992V17.9061H11.3749V12.3853C11.3749 11.9686 11.5138 11.6214 11.7916 11.3436C12.1041 11.0311 12.4687 10.8748 12.8853 10.8748C13.3367 10.8748 13.7013 11.0311 13.9791 11.3436C14.2916 11.6214 14.4478 11.9686 14.4478 12.3853V17.9061H17.5728ZM4.65617 6.86442C5.177 6.86442 5.61103 6.69081 5.95825 6.34359C6.3402 5.96164 6.53117 5.51025 6.53117 4.98942C6.53117 4.46859 6.3402 4.03456 5.95825 3.68734C5.61103 3.30539 5.177 3.11442 4.65617 3.11442C4.13534 3.11442 3.68395 3.30539 3.302 3.68734C2.95478 4.03456 2.78117 4.46859 2.78117 4.98942C2.78117 5.51025 2.95478 5.96164 3.302 6.34359C3.68395 6.69081 4.13534 6.86442 4.65617 6.86442ZM6.16659 17.9061V8.58317H3.09367V17.9061H6.16659Z" fill="#22222A"/>
</svg>
