<svg width="22" height="22" viewBox="0 0 22 22" fill="none" xmlns="http://www.w3.org/2000/svg">
<path d="M8.05727 10.1408H6.25854V8.31012H8.05727C8.05727 8.31012 9.12091 8.2853 9.12091 9.22603C9.12091 10.1668 8.05727 10.1408 8.05727 10.1408Z" fill="#22222A"/>
<path d="M9.43409 12.4727C9.43409 13.5943 8.16718 13.5659 8.16718 13.5659H6.25854V11.3819H8.16364C8.16364 11.3819 9.43409 11.3547 9.43409 12.4727Z" fill="#22222A"/>
<path d="M14.581 10.1575C13.9322 10.1575 13.3992 10.6432 13.2928 11.4043H15.8692C15.7676 10.6456 15.2286 10.1575 14.581 10.1575ZM14.581 10.1575C13.9322 10.1575 13.3992 10.6432 13.2928 11.4043H15.8692C15.7676 10.6456 15.2286 10.1575 14.581 10.1575ZM18.5637 0.600098H3.43646C2.68421 0.600098 1.96277 0.898928 1.43085 1.43085C0.898928 1.96277 0.600098 2.68421 0.600098 3.43646L0.600098 18.5637C0.600098 19.316 0.898928 20.0374 1.43085 20.5693C1.96277 21.1013 2.68421 21.4001 3.43646 21.4001H18.5637C19.316 21.4001 20.0374 21.1013 20.5693 20.5693C21.1013 20.0374 21.4001 19.316 21.4001 18.5637V3.43646C21.4001 2.68421 21.1013 1.96277 20.5693 1.43085C20.0374 0.898928 19.316 0.600098 18.5637 0.600098V0.600098ZM12.9454 7.45464H16.2001V8.26537H12.9454V7.45464ZM9.84073 14.6318C9.39283 14.8528 8.83028 14.9226 8.30437 14.9226H4.5001V6.93228H8.68255C9.20019 6.93228 10.8027 7.24073 10.8098 8.78064C10.8098 9.84428 10.2189 10.3312 9.70955 10.5652C9.70955 10.5652 11.0379 10.9599 11.1443 12.1346C11.2506 13.3094 11.0403 14.0397 9.84073 14.6318ZM17.4824 12.4277H13.2928C13.2526 13.3507 13.9275 13.9015 14.6945 13.9015C14.9613 13.902 15.2233 13.83 15.4523 13.693C15.6813 13.556 15.8688 13.3592 15.9945 13.1238H17.3666C16.9896 14.4971 15.8846 15.0691 14.5786 15.0691C12.8686 15.0691 11.6525 13.6982 11.6525 12.0058C11.6525 10.3135 12.9631 8.94137 14.5786 8.94137C16.1942 8.94137 17.5001 10.3135 17.5001 12.0058C17.5001 12.1524 17.5001 12.2918 17.4824 12.4277ZM14.581 10.1575C13.9322 10.1575 13.3992 10.6432 13.2928 11.4043H15.8692C15.7676 10.6456 15.2286 10.1575 14.581 10.1575Z" fill="#22222A"/>
</svg>
