<svg width="24" height="20" viewBox="0 0 24 20" fill="none" xmlns="http://www.w3.org/2000/svg">
<path d="M23.2292 2.90609C22.3958 3.28803 21.4931 3.54845 20.5208 3.68734C21.5278 3.06234 22.2222 2.17692 22.6042 1.03109C21.6667 1.58664 20.6597 1.96859 19.5833 2.17692C18.6458 1.16998 17.4653 0.666504 16.0417 0.666504C14.7569 0.666504 13.6458 1.13525 12.7083 2.07275C11.7708 3.01025 11.3021 4.13873 11.3021 5.45817C11.3021 5.80539 11.3542 6.16998 11.4583 6.55192C9.51389 6.44775 7.67361 5.96164 5.9375 5.09359C4.23611 4.19081 2.79514 3.01025 1.61458 1.55192C1.19792 2.28109 0.989583 3.0797 0.989583 3.94775C0.989583 4.78109 1.18056 5.54498 1.5625 6.23942C1.94444 6.93387 2.44792 7.48942 3.07292 7.90609C2.34375 7.90609 1.63194 7.71512 0.9375 7.33317V7.38525C0.9375 8.53109 1.30208 9.53803 2.03125 10.4061C2.76042 11.2741 3.66319 11.8297 4.73958 12.0728C4.35764 12.1769 3.94097 12.229 3.48958 12.229C3.21181 12.229 2.91667 12.1943 2.60417 12.1248C2.91667 13.0971 3.47222 13.8957 4.27083 14.5207C5.10417 15.1109 6.0243 15.4234 7.03125 15.4582C5.32986 16.8123 3.36806 17.4894 1.14583 17.4894C0.763889 17.4894 0.381944 17.4721 0 17.4373C2.22222 18.8609 4.65278 19.5728 7.29167 19.5728C10.0694 19.5728 12.5347 18.8609 14.6875 17.4373C16.6667 16.1873 18.2118 14.4859 19.3229 12.3332C20.3646 10.2846 20.8854 8.18387 20.8854 6.03109L20.8333 5.40609C21.7708 4.74637 22.5694 3.91303 23.2292 2.90609Z" fill="#22222A"/>
</svg>
