<svg width="32" height="32" viewBox="0 0 32 32" fill="none" xmlns="http://www.w3.org/2000/svg">
<path d="M21.6667 30C21.1144 30 20.6667 29.5523 20.6667 29V26.5429C20.6667 25.9906 20.219 25.5429 19.6667 25.5429H15.9231C15.3708 25.5429 14.9231 25.0951 14.9231 24.5429V11.6857C14.9231 11.1334 14.4754 10.6857 13.9231 10.6857H12.3333C11.781 10.6857 11.3333 11.1334 11.3333 11.6857V14.1429C11.3333 14.6951 10.8856 15.1429 10.3333 15.1429H3C2.44771 15.1429 2 14.6951 2 14.1429V5C2 4.44772 2.44772 4 3 4H10.3333C10.8856 4 11.3333 4.44772 11.3333 5V7.45714C11.3333 8.00943 11.781 8.45714 12.3333 8.45714H19.6667C20.219 8.45714 20.6667 8.00943 20.6667 7.45714V5C20.6667 4.44772 21.1144 4 21.6667 4H29C29.5523 4 30 4.44772 30 5V14.1429C30 14.6951 29.5523 15.1429 29 15.1429H21.6667C21.1144 15.1429 20.6667 14.6951 20.6667 14.1429V11.6857C20.6667 11.1334 20.219 10.6857 19.6667 10.6857H18.0769C17.5246 10.6857 17.0769 11.1334 17.0769 11.6857V22.3143C17.0769 22.8666 17.5246 23.3143 18.0769 23.3143H19.6667C20.219 23.3143 20.6667 22.8666 20.6667 22.3143V19.8571C20.6667 19.3049 21.1144 18.8571 21.6667 18.8571H29C29.5523 18.8571 30 19.3049 30 19.8571V29C30 29.5523 29.5523 30 29 30H21.6667ZM22.8205 11.9143C22.8205 12.4666 23.2682 12.9143 23.8205 12.9143H26.8462C27.3984 12.9143 27.8462 12.4666 27.8462 11.9143V7.22857C27.8462 6.67629 27.3984 6.22857 26.8462 6.22857H23.8205C23.2682 6.22857 22.8205 6.67629 22.8205 7.22857V11.9143ZM22.8205 26.7714C22.8205 27.3237 23.2682 27.7714 23.8205 27.7714H26.8462C27.3984 27.7714 27.8462 27.3237 27.8462 26.7714V22.0857C27.8462 21.5334 27.3984 21.0857 26.8462 21.0857H23.8205C23.2682 21.0857 22.8205 21.5334 22.8205 22.0857V26.7714ZM4.15385 11.9143C4.15385 12.4666 4.60156 12.9143 5.15385 12.9143H8.17949C8.73177 12.9143 9.17949 12.4666 9.17949 11.9143V7.22857C9.17949 6.67629 8.73177 6.22857 8.17949 6.22857H5.15385C4.60156 6.22857 4.15385 6.67629 4.15385 7.22857V11.9143Z" fill="white"/>
</svg>
