<svg width="32" height="32" viewBox="0 0 32 32" fill="none" xmlns="http://www.w3.org/2000/svg">
<g clip-path="url(#clip0_25_514)">
<path d="M0.0761719 22.5781C0.0761719 25.2949 1.51074 26.7168 4.25293 26.7168H17.4941C17.0244 25.9551 16.6943 25.0918 16.542 24.1904H4.24023C3.18652 24.1904 2.60254 23.6445 2.60254 22.5273V10.8477C2.60254 9.73047 3.18652 9.18457 4.24023 9.18457H21.7471C22.8008 9.18457 23.3848 9.73047 23.3848 10.8477V14.25C23.8291 14.1738 24.248 14.1357 24.667 14.1357C25.0859 14.1357 25.5049 14.1738 25.9238 14.2373V7.12793C25.9238 4.41113 24.4893 2.98926 21.7344 2.98926H4.25293C1.51074 2.98926 0.0761719 4.39844 0.0761719 7.12793V22.5781ZM10.5498 13.5645H11.2988C11.7559 13.5645 11.9082 13.4248 11.9082 12.9805V12.2314C11.9082 11.7744 11.7559 11.6348 11.2988 11.6348H10.5498C10.0928 11.6348 9.94043 11.7744 9.94043 12.2314V12.9805C9.94043 13.4248 10.0928 13.5645 10.5498 13.5645ZM14.7012 13.5645H15.4502C15.8945 13.5645 16.0469 13.4248 16.0469 12.9805V12.2314C16.0469 11.7744 15.8945 11.6348 15.4502 11.6348H14.7012C14.2441 11.6348 14.0918 11.7744 14.0918 12.2314V12.9805C14.0918 13.4248 14.2441 13.5645 14.7012 13.5645ZM18.8398 13.5645H19.5889C20.0459 13.5645 20.1982 13.4248 20.1982 12.9805V12.2314C20.1982 11.7744 20.0459 11.6348 19.5889 11.6348H18.8398C18.3955 11.6348 18.2432 11.7744 18.2432 12.2314V12.9805C18.2432 13.4248 18.3955 13.5645 18.8398 13.5645ZM6.41113 17.6523H7.14746C7.60449 17.6523 7.75684 17.5127 7.75684 17.0557V16.3066C7.75684 15.8623 7.60449 15.7227 7.14746 15.7227H6.41113C5.9541 15.7227 5.80176 15.8623 5.80176 16.3066V17.0557C5.80176 17.5127 5.9541 17.6523 6.41113 17.6523ZM10.5498 17.6523H11.2988C11.7559 17.6523 11.9082 17.5127 11.9082 17.0557V16.3066C11.9082 15.8623 11.7559 15.7227 11.2988 15.7227H10.5498C10.0928 15.7227 9.94043 15.8623 9.94043 16.3066V17.0557C9.94043 17.5127 10.0928 17.6523 10.5498 17.6523ZM14.7012 17.6523H15.4502C15.8945 17.6523 16.0469 17.5127 16.0469 17.0557V16.3066C16.0469 15.8623 15.8945 15.7227 15.4502 15.7227H14.7012C14.2441 15.7227 14.0918 15.8623 14.0918 16.3066V17.0557C14.0918 17.5127 14.2441 17.6523 14.7012 17.6523ZM24.667 29.0273C28.2217 29.0273 31.2178 26.0566 31.2178 22.4766C31.2178 18.8965 28.2598 15.9385 24.667 15.9385C21.0869 15.9385 18.1289 18.8965 18.1289 22.4766C18.1289 26.0693 21.0869 29.0273 24.667 29.0273ZM21.6455 23.5684C21.1377 23.5684 20.7441 23.1621 20.7441 22.667C20.7441 22.1846 21.1504 21.791 21.6455 21.791H23.8545V18.8203C23.8545 18.3252 24.248 17.9443 24.7432 17.9443C25.2383 17.9443 25.6445 18.3252 25.6445 18.8203V22.667C25.6445 23.1748 25.251 23.5684 24.7432 23.5684H21.6455ZM6.41113 21.7275H7.14746C7.60449 21.7275 7.75684 21.5879 7.75684 21.1436V20.3945C7.75684 19.9375 7.60449 19.7979 7.14746 19.7979H6.41113C5.9541 19.7979 5.80176 19.9375 5.80176 20.3945V21.1436C5.80176 21.5879 5.9541 21.7275 6.41113 21.7275ZM10.5498 21.7275H11.2988C11.7559 21.7275 11.9082 21.5879 11.9082 21.1436V20.3945C11.9082 19.9375 11.7559 19.7979 11.2988 19.7979H10.5498C10.0928 19.7979 9.94043 19.9375 9.94043 20.3945V21.1436C9.94043 21.5879 10.0928 21.7275 10.5498 21.7275ZM14.7012 21.7275H15.4502C15.8945 21.7275 16.0469 21.5879 16.0469 21.1436V20.3945C16.0469 19.9375 15.8945 19.7979 15.4502 19.7979H14.7012C14.2441 19.7979 14.0918 19.9375 14.0918 20.3945V21.1436C14.0918 21.5879 14.2441 21.7275 14.7012 21.7275Z" fill="white"/>
</g>
<defs>
<clipPath id="clip0_25_514">
<rect width="32" height="32" fill="white"/>
</clipPath>
</defs>
</svg>
