<svg width="24" height="24" viewBox="0 0 24 24" fill="none" xmlns="http://www.w3.org/2000/svg">
<g clip-path="url(#clip0_523_1389)">
<path d="M15.6054 17.915C16.1174 17.7929 16.4335 17.2788 16.3114 16.7668C16.1894 16.2547 15.6753 15.9386 15.1632 16.0607C14.6512 16.1828 14.3351 16.6968 14.4572 17.2089C14.5792 17.7209 15.0933 18.0371 15.6054 17.915Z" fill="white"/>
<path d="M18.6762 10.0518C18.1508 10.0518 17.7234 10.4792 17.7234 11.0046C17.7234 11.5301 18.1508 11.9575 18.6762 11.9575C19.2016 11.9575 19.6291 11.5301 19.6291 11.0046C19.6291 10.4792 19.2016 10.0518 18.6762 10.0518Z" fill="white"/>
<path d="M14.147 7.16751C14.791 7.16751 15.315 6.64354 15.315 5.99953C15.315 5.35551 14.791 4.83154 14.147 4.83154C13.503 4.83154 12.979 5.35551 12.979 5.99953C12.979 6.64354 13.5029 7.16751 14.147 7.16751V7.16751Z" fill="white"/>
<path d="M8.28122 14.0945C7.71221 14.0945 7.24927 14.5574 7.24927 15.1264C7.24927 15.6955 7.71221 16.1584 8.28122 16.1584C8.85028 16.1584 9.31322 15.6955 9.31322 15.1264C9.31317 14.5574 8.85028 14.0945 8.28122 14.0945Z" fill="white"/>
<path d="M20.541 3.57141C18.3127 1.31401 15.3401 0.0463648 12.1706 0.00202105C11.8326 -0.00266645 11.5368 0.23574 11.471 0.568787C11.2171 1.85368 10.1266 2.81494 8.81911 2.9064C8.60911 2.92111 8.41669 3.02912 8.29482 3.20082C8.17294 3.37252 8.13441 3.58974 8.18986 3.79285C8.45171 4.75266 8.27124 5.82277 7.69482 6.72877C7.09838 7.66627 6.17391 8.28816 5.15846 8.43488C4.78187 8.4893 4.51684 8.83346 4.56057 9.21151C4.5736 9.32438 4.58021 9.43772 4.58021 9.54844C4.58021 11.1556 3.27273 12.463 1.66562 12.463C1.41638 12.463 1.16851 12.4314 0.929025 12.3691C0.707306 12.3113 0.471385 12.3653 0.296822 12.5136C0.122166 12.6619 0.03076 12.8859 0.0518069 13.114C0.325041 16.0797 1.68901 18.8258 3.89237 20.8464C6.10974 22.88 8.98904 23.9999 11.9998 23.9999C15.2051 23.9999 18.2186 22.7517 20.4851 20.4852C22.7516 18.2187 23.9998 15.2052 23.9998 11.9999C23.9998 8.82441 22.7715 5.83112 20.541 3.57141V3.57141ZM4.24576 15.4007C4.21534 15.6938 4.0028 15.9407 3.71701 16.0131C3.43309 16.085 3.12338 15.9662 2.96138 15.7218C2.79906 15.4769 2.80641 15.1494 2.98131 14.9129C3.15559 14.6772 3.46993 14.5729 3.75029 14.6591C4.06641 14.7563 4.27937 15.0701 4.24576 15.4007ZM17.9764 6.35944C18.0067 6.06718 18.2198 5.81883 18.5052 5.74702C18.7895 5.67549 19.0982 5.79394 19.2607 6.03835C19.4235 6.28332 19.4153 6.6106 19.2409 6.84732C19.067 7.08333 18.7521 7.1873 18.4718 7.10152C18.1558 7.00472 17.9428 6.6893 17.9764 6.35944V6.35944ZM14.1472 3.42554C15.5666 3.42554 16.7214 4.58035 16.7214 5.99977C16.7214 7.41924 15.5666 8.57401 14.1472 8.57401C12.7277 8.57401 11.5729 7.41919 11.5729 5.99977C11.5729 4.5803 12.7277 3.42554 14.1472 3.42554ZM14.8503 10.6298C14.8503 10.9238 14.6602 11.192 14.384 11.2914C14.1083 11.3906 13.7889 11.3028 13.6035 11.0755C13.4182 10.8485 13.3925 10.52 13.5442 10.2685C13.6955 10.0175 13.9962 9.88158 14.2846 9.94027C14.6091 10.0063 14.8503 10.2976 14.8503 10.6298V10.6298ZM8.95669 9.99788C8.98707 9.70515 9.19951 9.45788 9.48507 9.38546C9.7696 9.31327 10.0779 9.43262 10.2406 9.67679C10.4042 9.92241 10.3947 10.248 10.2209 10.4857C10.0481 10.722 9.73144 10.8256 9.45211 10.7399C9.13585 10.6428 8.92313 10.3281 8.95669 9.99788ZM8.28127 17.5647C6.93685 17.5647 5.84307 16.4709 5.84307 15.1265C5.84307 13.7821 6.93685 12.6883 8.28127 12.6883C9.62574 12.6883 10.7195 13.7821 10.7195 15.1265C10.7195 16.4709 9.62569 17.5647 8.28127 17.5647ZM11.7622 20.0737C11.7324 20.366 11.5186 20.6147 11.2334 20.6865C10.9489 20.758 10.6403 20.6392 10.4778 20.3948C10.3157 20.1509 10.3222 19.8216 10.4977 19.5862C10.6734 19.3504 10.985 19.2466 11.2667 19.3321C11.5827 19.4281 11.7956 19.7442 11.7622 20.0737V20.0737ZM12.8998 13.9579C12.6173 14.0417 12.3076 13.9406 12.131 13.7039C11.956 13.4693 11.948 13.1378 12.1109 12.8948C12.2741 12.6513 12.5819 12.5314 12.8665 12.6034C13.1521 12.6758 13.3653 12.9234 13.3953 13.2163C13.4288 13.5446 13.2163 13.8635 12.8998 13.9579ZM15.3769 19.3466C14.076 19.3466 13.0178 18.2883 13.0178 16.9875C13.0178 15.6867 14.076 14.6284 15.3769 14.6284C16.6777 14.6284 17.736 15.6867 17.736 16.9875C17.736 18.2883 16.6777 19.3466 15.3769 19.3466V19.3466ZM16.3171 11.0047C16.3171 9.70383 17.3754 8.64554 18.6762 8.64554C19.977 8.64554 21.0353 9.70383 21.0353 11.0047C21.0353 12.3055 19.977 13.3638 18.6762 13.3638C17.3754 13.3638 16.3171 12.3055 16.3171 11.0047V11.0047ZM20.8484 15.4007C20.8186 15.6935 20.6053 15.9408 20.32 16.0131C20.0356 16.0853 19.7269 15.966 19.5645 15.7218C19.4011 15.4761 19.4103 15.1507 19.5842 14.9129C19.7568 14.6768 20.0739 14.5729 20.353 14.6591C20.669 14.7568 20.882 15.0698 20.8484 15.4007V15.4007Z" fill="white"/>
<path d="M4.24875 0C2.90433 0 1.81055 1.09378 1.81055 2.4382C1.81055 3.78262 2.90433 4.87641 4.24875 4.87641C5.59322 4.87641 6.687 3.78262 6.687 2.4382C6.68695 1.09378 5.59317 0 4.24875 0ZM4.24875 3.25341C3.79927 3.25341 3.43355 2.88769 3.43355 2.4382C3.43355 1.98872 3.79927 1.623 4.24875 1.623C4.69828 1.623 5.06395 1.98872 5.06395 2.4382C5.06395 2.88773 4.69823 3.25341 4.24875 3.25341Z" fill="white"/>
<path d="M0.701883 8.30397C0.407743 8.30397 0.139618 8.11384 0.0402428 7.83766C-0.0590853 7.56175 0.0286647 7.24267 0.256149 7.05705C0.483868 6.87124 0.810821 6.84681 1.06315 6.99775C1.31477 7.14827 1.44926 7.45052 1.39146 7.73814C1.32621 8.06261 1.03315 8.30397 0.701883 8.30397Z" fill="white"/>
</g>
<defs>
<clipPath id="clip0_523_1389">
<rect width="24" height="24" fill="white"/>
</clipPath>
</defs>
</svg>
