<svg width="14" height="19" viewBox="0 0 14 19" fill="none" xmlns="http://www.w3.org/2000/svg">
<path d="M7 9.27734C6.36979 9.27734 5.82552 9.0625 5.36719 8.63281C4.9375 8.17448 4.72266 7.63021 4.72266 7C4.72266 6.36979 4.9375 5.83984 5.36719 5.41016C5.82552 4.95182 6.36979 4.72266 7 4.72266C7.63021 4.72266 8.16016 4.95182 8.58984 5.41016C9.04818 5.83984 9.27734 6.36979 9.27734 7C9.27734 7.63021 9.04818 8.17448 8.58984 8.63281C8.16016 9.0625 7.63021 9.27734 7 9.27734ZM7 0.597656C5.82552 0.597656 4.7513 0.884115 3.77734 1.45703C2.80339 2.02995 2.02995 2.80339 1.45703 3.77734C0.884115 4.7513 0.597656 5.8112 0.597656 6.95703C0.597656 8.10286 0.927083 9.42057 1.58594 10.9102C2.13021 12.0846 2.86068 13.3737 3.77734 14.7773C4.46484 15.7513 5.20964 16.7396 6.01172 17.7422L7 18.9023L7.98828 17.7422C8.79036 16.7396 9.53516 15.7513 10.2227 14.7773C11.1393 13.3737 11.8698 12.0846 12.4141 10.9102C13.0729 9.42057 13.4023 8.10286 13.4023 6.95703C13.4023 5.8112 13.1159 4.7513 12.543 3.77734C11.9701 2.80339 11.1966 2.02995 10.2227 1.45703C9.2487 0.884115 8.17448 0.597656 7 0.597656Z" fill="white"/>
</svg>
