<svg width="16" height="14" viewBox="0 0 16 14" fill="none" xmlns="http://www.w3.org/2000/svg">
<path d="M14.4643 4.79497C14.2619 4.93779 13.6518 5.36198 12.634 6.0673C11.6161 6.77263 10.8364 7.31572 10.2947 7.69659C10.2352 7.73834 10.1087 7.82909 9.91531 7.96897C9.72185 8.10895 9.56111 8.22207 9.4332 8.30835C9.3052 8.3946 9.15047 8.49136 8.96883 8.59846C8.78726 8.70548 8.61611 8.78598 8.4554 8.83927C8.29465 8.89299 8.14586 8.91961 8.00898 8.91961H8H7.99099C7.85411 8.91961 7.70525 8.89296 7.54451 8.83927C7.38386 8.78598 7.21255 8.70539 7.03114 8.59846C6.84963 8.49123 6.69489 8.39457 6.56689 8.30835C6.43889 8.22207 6.27827 8.10895 6.08476 7.96897C5.89137 7.82897 5.76477 7.73834 5.70526 7.69659C5.15774 7.31572 3.76475 6.34842 1.52674 4.79478C1.09224 4.49134 0.72922 4.1252 0.437601 3.6966C0.145763 3.2682 0 2.81878 0 2.34859C0 1.95568 0.141447 1.61934 0.424216 1.3396C0.706954 1.0598 1.04182 0.919983 1.42861 0.919983H14.5715C15.0298 0.919983 15.3825 1.07472 15.6295 1.3842C15.8765 1.69374 16 2.08064 16 2.54489C16 2.91988 15.8363 3.32624 15.5089 3.76372C15.1816 4.20122 14.8333 4.54501 14.4643 4.79497Z" fill="white"/>
<path d="M0.892983 5.54464C2.84516 6.86595 4.32749 7.89282 5.33926 8.62504C5.67854 8.87495 5.95377 9.07002 6.16514 9.20981C6.37651 9.3497 6.65762 9.49255 7.00888 9.63831C7.36001 9.7843 7.68725 9.85707 7.99088 9.85707H7.99998H8.00895C8.31252 9.85707 8.63995 9.7843 8.99108 9.63831C9.34221 9.49255 9.62351 9.3497 9.83482 9.20981C10.0461 9.07002 10.3214 8.87495 10.6606 8.62504C11.4643 8.0358 12.9434 7.00886 15.0981 5.54464C15.4375 5.3186 15.7381 5.0595 16 4.76788V11.857C16 12.2501 15.8602 12.5862 15.5804 12.866C15.3006 13.1458 14.9643 13.2857 14.5714 13.2857H1.4285C1.03571 13.2857 0.699372 13.1458 0.419606 12.866C0.139746 12.5861 -1.33514e-05 12.2501 -1.33514e-05 11.857V4.76788C0.255987 5.05347 0.553517 5.31256 0.892983 5.54464Z" fill="white"/>
</svg>
