<svg width="32" height="32" viewBox="0 0 32 32" fill="none" xmlns="http://www.w3.org/2000/svg">
<path d="M10.3462 4L8.73077 5.66887L11.1154 8.13245H10.3462C7.73077 8.23841 5.51949 9.25192 3.71231 11.173C1.9041 13.093 1 15.3907 1 18.0662C1 20.8212 1.9359 23.1656 3.80769 25.0993C5.67949 27.0331 7.94872 28 10.6154 28H15.5V25.6159H10.6154C8.58974 25.6159 6.86564 24.8874 5.44308 23.4305C4.01949 21.9735 3.30769 20.1987 3.30769 18.106C3.30769 16.0662 3.98051 14.3248 5.32615 12.8816C6.67282 11.4374 8.32051 10.6623 10.2692 10.5563H11.0385L8.73077 12.9801L10.3462 14.649L15.5 9.3245L10.3462 4ZM19.4615 8.13245V10.5166H31V8.13245H19.4615ZM19.4615 16.8742V19.2583H31V16.8742H19.4615ZM19.4615 25.6159V28H31V25.6159H19.4615Z" fill="white"/>
</svg>
