<svg width="32" height="32" viewBox="0 0 32 32" fill="none" xmlns="http://www.w3.org/2000/svg">
<path d="M28.5225 13.3675C29.4181 12.6852 30 11.6105 30 10.4C30 8.34149 28.3251 6.66663 26.2667 6.66663C24.2082 6.66663 22.5333 8.34149 22.5333 10.4C22.5333 11.5153 23.0275 12.5154 23.8055 13.2H21.3265L18.1966 10.07C18.0141 9.88756 17.7192 9.88756 17.5367 10.07L15.6701 11.9367C15.4876 12.1192 15.4876 12.4141 15.6701 12.5966L19.8701 16.7966C19.9573 16.8843 20.0759 16.9333 20.2 16.9333H23.9333V20.2H21.6H15.9384L18.2549 16.7256L17.4784 16.2081L14.817 20.2H13.6667V17.8666C13.6667 17.6086 13.4581 17.4 13.2 17.4H9.46667V15.5333C9.46667 14.5496 8.85253 13.71 7.9892 13.3675C8.88473 12.6852 9.46667 11.6105 9.46667 10.4C9.46667 8.34149 7.7918 6.66663 5.73333 6.66663C3.67487 6.66663 2 8.34149 2 10.4C2 11.6105 2.58193 12.6852 3.47747 13.3675C2.61413 13.71 2 14.5496 2 15.5333V22.0666C2 23.3532 3.04673 24.4 4.33333 24.4V30H5.26667V24.4H8.53333V29.5333C8.53333 29.7914 8.74193 30 9 30H12.2667C12.5247 30 12.7333 29.7914 12.7333 29.5333V22.5333C12.7333 22.0083 12.5593 21.5234 12.2657 21.1333H12.7333H13.2H15.5333V29.0666H13.6667V30H18.3333V29.0666H16.4667V21.1333H19.7455C19.4491 21.5244 19.2667 22.006 19.2667 22.5333V29.5333C19.2667 29.7914 19.4753 30 19.7333 30H23C23.2581 30 23.4667 29.7914 23.4667 29.5333V24.4H26.7333V30H27.6667V24.4C28.9533 24.4 30 23.3532 30 22.0666V15.5333C30 14.5496 29.3859 13.71 28.5225 13.3675ZM2.93333 10.4C2.93333 8.85576 4.18913 7.59996 5.73333 7.59996C7.27753 7.59996 8.53333 8.85576 8.53333 10.4C8.53333 11.9442 7.27753 13.2 5.73333 13.2C4.18913 13.2 2.93333 11.9442 2.93333 10.4ZM12.7333 20.2H6.66667V16.4666H5.73333V20.6666C5.73333 20.9247 5.94193 21.1333 6.2 21.1333H10.4C11.1719 21.1333 11.8 21.7614 11.8 22.5333V29.0666H9.46667V23.9333C9.46667 23.6752 9.25807 23.4666 9 23.4666H4.33333C3.56147 23.4666 2.93333 22.8385 2.93333 22.0666V15.5333C2.93333 14.7614 3.56147 14.1333 4.33333 14.1333H7.13333C7.9052 14.1333 8.53333 14.7614 8.53333 15.5333V17.8666C8.53333 18.1247 8.74193 18.3333 9 18.3333H12.7333V20.2ZM23.4667 10.4C23.4667 8.85576 24.7225 7.59996 26.2667 7.59996C27.8109 7.59996 29.0667 8.85576 29.0667 10.4C29.0667 11.9442 27.8109 13.2 26.2667 13.2C24.7225 13.2 23.4667 11.9442 23.4667 10.4ZM29.0667 22.0666C29.0667 22.8385 28.4385 23.4666 27.6667 23.4666H23C22.7419 23.4666 22.5333 23.6752 22.5333 23.9333V29.0666H20.2V22.5333C20.2 21.7614 20.8281 21.1333 21.6 21.1333H24.4C24.6581 21.1333 24.8667 20.9247 24.8667 20.6666V16.4666C24.8667 16.2086 24.6581 16 24.4 16H20.3932L16.6599 12.2666L17.8667 11.0598L20.8034 13.9966C20.8907 14.0843 21.0092 14.1333 21.1333 14.1333H27.6667C28.4385 14.1333 29.0667 14.7614 29.0667 15.5333V22.0666Z" fill="#22222A"/>
<path d="M20.6667 2H11.3333C10.5615 2 9.93335 2.62813 9.93335 3.4V7.13333C9.93335 7.9052 10.5615 8.53333 11.3333 8.53333H11.8V11.3333C11.8 11.5219 11.9134 11.6927 12.0879 11.7645C12.1458 11.7888 12.2065 11.8 12.2667 11.8C12.388 11.8 12.5075 11.7524 12.5966 11.6633L15.7265 8.53333H20.6667C21.4385 8.53333 22.0667 7.9052 22.0667 7.13333V3.4C22.0667 2.62813 21.4385 2 20.6667 2ZM21.1334 7.13333C21.1334 7.39093 20.9243 7.6 20.6667 7.6H15.5333C15.4092 7.6 15.2907 7.649 15.2034 7.73673L12.7333 10.2068V8.06667C12.7333 7.8086 12.5247 7.6 12.2667 7.6H11.3333C11.0757 7.6 10.8667 7.39093 10.8667 7.13333V3.4C10.8667 3.1424 11.0757 2.93333 11.3333 2.93333H20.6667C20.9243 2.93333 21.1334 3.1424 21.1334 3.4V7.13333Z" fill="#22222A"/>
<path d="M14.6 3.8667H11.8V4.80003H14.6V3.8667Z" fill="#22222A"/>
<path d="M20.2 5.73328H11.8V6.66661H20.2V5.73328Z" fill="#22222A"/>
<path d="M20.2001 3.8667H15.5334V4.80003H20.2001V3.8667Z" fill="#22222A"/>
</svg>
