<svg width="32" height="32" viewBox="0 0 32 32" fill="none" xmlns="http://www.w3.org/2000/svg">
<path fill-rule="evenodd" clip-rule="evenodd" d="M8.08756 21.6435C7.83949 21.6435 7.58987 21.5647 7.37901 21.404C6.87046 21.0129 6.77434 20.2849 7.1666 19.7779L11.8071 13.7653C11.9962 13.5195 12.2768 13.3603 12.5838 13.3217C12.897 13.2815 13.204 13.368 13.4474 13.5613L17.8197 16.9849L21.6446 12.0651C22.0384 11.5565 22.7671 11.4622 23.2757 11.8579C23.7842 12.2505 23.8772 12.9785 23.4834 13.484L18.9406 19.3266C18.7515 19.5708 18.4724 19.73 18.1654 19.7671C17.8553 19.8088 17.5483 19.7192 17.3034 19.5291L12.9342 16.107L9.01007 21.1907C8.78061 21.4874 8.43641 21.6435 8.08756 21.6435" fill="white"/>
<path fill-rule="evenodd" clip-rule="evenodd" d="M22.0673 32H8.72729C3.50696 32 -0.000137329 28.3445 -0.000137329 22.9037V10.4117C-0.000137329 4.9632 3.50696 1.30151 8.72729 1.30151H19.9959C20.6378 1.30151 21.1587 1.82086 21.1587 2.46076C21.1587 3.10067 20.6378 3.62001 19.9959 3.62001H8.72729C4.83879 3.62001 2.32552 6.28474 2.32552 10.4117V22.9037C2.32552 27.0848 4.77832 29.6815 8.72729 29.6815H22.0673C25.9558 29.6815 28.469 27.0214 28.469 22.9037V12.0238C28.469 11.3839 28.99 10.8646 29.6319 10.8646C30.2738 10.8646 30.7947 11.3839 30.7947 12.0238V22.9037C30.7947 28.3445 27.2876 32 22.0673 32" fill="white"/>
<path fill-rule="evenodd" clip-rule="evenodd" d="M27.8572 2.31828C26.8556 2.31828 26.0401 3.12976 26.0401 4.1298C26.0401 5.1283 26.8556 5.94287 27.8572 5.94287C28.8588 5.94287 29.6743 5.1283 29.6743 4.1298C29.6743 3.12976 28.8588 2.31828 27.8572 2.31828M27.8572 8.26146C25.5734 8.26146 23.7144 6.40821 23.7144 4.1299C23.7144 1.85159 25.5734 -0.00012207 27.8572 -0.00012207C30.1426 -0.00012207 32 1.85159 32 4.1299C32 6.40821 30.1426 8.26146 27.8572 8.26146" fill="white"/>
</svg>
