<svg width="14" height="9" viewBox="0 0 14 9" fill="none" xmlns="http://www.w3.org/2000/svg">
<path d="M7 8.52344C7.19531 8.52344 7.39062 8.44531 7.52344 8.29688L13.5703 2.10156C13.7031 1.96875 13.7812 1.79688 13.7812 1.60156C13.7812 1.19531 13.4766 0.882812 13.0703 0.882812C12.875 0.882812 12.6953 0.960938 12.5625 1.08594L7 6.77344L1.42969 1.08594C1.30469 0.960938 1.125 0.882812 0.921875 0.882812C0.515625 0.882812 0.210938 1.19531 0.210938 1.60156C0.210938 1.79688 0.289062 1.96875 0.421875 2.10938L6.46875 8.29688C6.61719 8.44531 6.79688 8.52344 7 8.52344Z" fill="#22222A" fill-opacity="0.72"/>
</svg>
