<svg width="32" height="32" viewBox="0 0 32 32" fill="none" xmlns="http://www.w3.org/2000/svg">
<path d="M16 19.3606C16.9533 19.3606 17.7697 19.0292 18.4492 18.3664C19.1275 17.7047 19.4667 16.9088 19.4667 15.9789C19.4667 15.0489 19.1275 14.2525 18.4492 13.5896C17.7697 12.9279 16.9533 12.5971 16 12.5971C15.0467 12.5971 14.2308 12.9279 13.5525 13.5896C12.8731 14.2525 12.5333 15.0489 12.5333 15.9789C12.5333 16.9088 12.8731 17.7047 13.5525 18.3664C14.2308 19.0292 15.0467 19.3606 16 19.3606ZM16 29.3369C17.3 28.9987 18.5567 28.3719 19.77 27.4566C20.9833 26.5401 22.0233 25.5465 22.89 24.4756L19.25 20.9247C18.7878 21.2629 18.2753 21.5097 17.7125 21.6653C17.1486 21.8197 16.5778 21.897 16 21.897C14.3244 21.897 12.8944 21.3192 11.71 20.1638C10.5256 19.0084 9.93333 17.6134 9.93333 15.9789C9.93333 14.3443 10.5256 12.9494 11.71 11.7939C12.8944 10.6385 14.3244 10.0608 16 10.0608C17.6756 10.0608 19.1056 10.6385 20.29 11.7939C21.4744 12.9494 22.0667 14.3443 22.0667 15.9789C22.0667 16.5425 21.9875 17.092 21.8292 17.6275C21.6697 18.1629 21.4456 18.6702 21.1567 19.1493L24.3633 22.3197C24.9989 21.1361 25.4975 19.8888 25.8592 18.5778C26.2197 17.2679 26.4 15.8943 26.4 14.4571V6.46764L16 2.66314L5.6 6.46764V14.4571C5.6 17.867 6.58222 20.967 8.54667 23.7569C10.5111 26.5469 12.9956 28.4069 16 29.3369ZM16 32C12.2444 31.0137 9.13889 28.8651 6.68333 25.5543C4.22778 22.2425 3 18.5434 3 14.4571V4.73448L16 0L29 4.73448V14.4571C29 18.5434 27.7722 22.2425 25.3167 25.5543C22.8611 28.8651 19.7556 31.0137 16 32Z" fill="white"/>
</svg>
