<svg width="340" height="80" viewBox="0 0 340 80" fill="none" xmlns="http://www.w3.org/2000/svg">
<path d="M107.61 62.6854L107.133 63.9209C106.084 63.4787 104.956 63.2483 103.815 63.2434C102.719 63.2434 102.11 63.8711 102.11 64.4888C102.11 65.6943 102.973 65.8438 104.891 66.4814C106.808 67.1191 107.934 67.677 107.934 69.4704C107.934 71.463 106.402 72.4594 104.576 72.4594C102.97 72.3945 101.402 71.9575 100 71.1841L100.619 69.9785C101.826 70.5915 103.149 70.9543 104.505 71.0446C105.601 71.0446 106.311 70.5962 106.311 69.7394C106.311 68.6335 105.733 68.2848 103.551 67.6471C101.897 67.1589 100.507 66.6508 100.507 64.6582C100.507 63.0342 101.786 61.9083 103.845 61.9083C105.14 61.9245 106.418 62.1885 107.61 62.6854ZM113.393 64.2098C113.947 64.1883 114.499 64.2824 115.013 64.4859C115.527 64.6894 115.991 64.9977 116.374 65.3904C116.758 65.7831 117.052 66.2512 117.238 66.7639C117.424 67.2766 117.497 67.8221 117.452 68.3645C117.418 69.1446 117.151 69.8978 116.685 70.5306C116.219 71.1633 115.574 71.6476 114.83 71.9235C114.086 72.1993 113.276 72.2545 112.501 72.0821C111.725 71.9097 111.018 71.5174 110.468 70.9539C109.917 70.3904 109.548 69.6805 109.405 68.9124C109.261 68.1443 109.351 67.3518 109.663 66.6334C109.974 65.915 110.494 65.3024 111.157 64.8715C111.82 64.4406 112.598 64.2105 113.393 64.2098ZM113.393 71.1841C113.761 71.1942 114.127 71.126 114.465 70.9841C114.803 70.8422 115.107 70.6299 115.353 70.3619C115.6 70.094 115.785 69.7766 115.895 69.4318C116.005 69.087 116.038 68.7229 115.991 68.3645C115.991 66.6408 114.976 65.505 113.444 65.505C111.912 65.505 110.907 66.6408 110.907 68.3645C110.868 68.7093 110.902 69.0583 111.008 69.3894C111.113 69.7204 111.288 70.0261 111.521 70.2869C111.754 70.5477 112.04 70.7577 112.361 70.9037C112.682 71.0496 113.03 71.1281 113.383 71.1343L113.393 71.1841ZM124.209 61.2208L124.108 62.2969C123.752 62.2969 123.357 62.2969 122.91 62.2969C121.825 62.2969 121.5 62.795 121.5 63.7914V64.4091H123.976V65.6346H121.47V72.2701H119.927V65.6346H118.811V64.3593H119.927V63.7415C119.927 61.8983 120.719 61.0017 122.626 61.0017C123.155 60.9896 123.684 61.0432 124.199 61.1611L124.209 61.2208ZM130.145 70.925L130.317 72.031C129.717 72.2572 129.082 72.3818 128.44 72.3996C126.735 72.3996 126.035 71.6125 126.035 69.7494V65.6346H124.818V64.3593H126.035V62.3666H127.567V64.3593H129.962V65.6346H127.557V69.6199C127.557 70.6959 127.963 70.935 128.937 70.935C129.338 70.9472 129.738 70.9239 130.134 70.8653L130.145 70.925ZM140.829 72.3299H138.952L137.298 66.86L135.695 72.2701H133.797L131.24 64.3593H132.722L134.497 69.6398C134.599 70.0283 134.68 70.3671 134.751 70.7158C134.832 70.397 134.923 70.0483 135.045 69.6398L136.557 64.3593H138.028L139.53 69.6398C139.631 69.9985 139.713 70.3671 139.814 70.7158C139.885 70.397 139.976 70.0582 140.088 69.6398L141.853 64.3593H143.385L140.829 72.3299ZM145.161 66.0331L144.897 64.8076C145.959 64.4813 147.062 64.3003 148.175 64.2696C150.427 64.2696 151.147 65.2659 151.147 67.5874V72.3299H149.615V71.3335C148.859 72.0376 147.867 72.4452 146.825 72.4793C145.019 72.4793 144.096 71.7918 144.096 70.0782C144.096 68.3645 145.212 67.5475 147.464 67.5475H149.615C149.615 66.0132 149.291 65.5549 147.921 65.5549C146.984 65.5852 146.054 65.7257 145.151 65.9733L145.161 66.0331ZM149.615 68.6435H147.647C146.216 68.6435 145.516 68.9125 145.516 69.9387C145.516 70.9649 146.115 71.3634 147.271 71.3634C147.725 71.3277 148.166 71.2024 148.569 70.9953C148.971 70.7882 149.327 70.5033 149.615 70.1579V68.6435ZM155.328 64.419V65.9633C155.506 65.474 155.829 65.0482 156.256 64.741C156.683 64.4338 157.193 64.2592 157.722 64.2397C158.061 64.2357 158.4 64.2523 158.737 64.2895L158.635 65.774C158.219 65.774 157.945 65.774 157.621 65.774C157.057 65.7977 156.518 66.0072 156.091 66.3688C155.664 66.7304 155.374 67.2229 155.267 67.7667V72.3199H153.735V64.3593L155.328 64.419ZM166.418 70.2176L166.986 71.214C166.004 72.0509 164.733 72.486 163.435 72.4295C161.233 72.4295 159.599 71.214 159.599 68.3844C159.599 65.5549 161.273 64.2397 163.506 64.2397C165.738 64.2397 167.036 65.6146 167.087 68.0755C167.093 68.3058 167.076 68.536 167.036 68.763H161.06C161.202 70.5564 162.176 71.2439 163.506 71.2439C164.568 71.2417 165.596 70.8791 166.418 70.2176ZM161.101 67.5375H165.707C165.719 67.2501 165.67 66.9635 165.561 66.6961C165.453 66.4288 165.289 66.1867 165.08 65.9857C164.87 65.7846 164.62 65.6291 164.345 65.5291C164.071 65.4292 163.778 65.387 163.485 65.4054C163.183 65.3879 162.88 65.4305 162.594 65.5307C162.309 65.6309 162.047 65.7866 161.825 65.9884C161.602 66.1903 161.423 66.4342 161.299 66.7055C161.175 66.9768 161.107 67.2699 161.101 67.5674V67.5375ZM179.364 72.2402V71.214C179.013 71.6022 178.579 71.9104 178.094 72.1169C177.608 72.3234 177.083 72.4233 176.554 72.4096C174.808 72.4096 173.175 71.2538 173.175 68.2649C173.175 65.2759 174.443 64.2397 176.33 64.2397C177.462 64.2281 178.554 64.6498 179.374 65.4154V61.3205H180.927V72.28L179.364 72.2402ZM179.364 69.7992V66.8102C179.077 66.4188 178.703 66.0962 178.271 65.8667C177.839 65.6373 177.359 65.5068 176.868 65.4851C175.59 65.4851 174.707 66.2025 174.707 68.2848C174.707 70.3671 175.752 71.214 176.97 71.214C177.445 71.1742 177.905 71.0289 178.314 70.789C178.724 70.549 179.072 70.2208 179.334 69.8291L179.364 69.7992ZM189.926 70.2176L190.495 71.214C189.511 72.0465 188.241 72.481 186.943 72.4295C184.742 72.4295 183.108 71.214 183.108 68.3844C183.108 65.5549 184.742 64.2397 187.014 64.2397C189.287 64.2397 190.545 65.6146 190.596 68.0755C190.602 68.3058 190.585 68.536 190.545 68.763H184.569C184.711 70.5564 185.675 71.2439 187.014 71.2439C188.066 71.2332 189.082 70.8713 189.896 70.2176H189.926ZM184.61 67.5375H189.226C189.244 67.251 189.198 66.9642 189.092 66.6967C188.986 66.4292 188.822 66.1873 188.612 65.9877C188.402 65.7881 188.15 65.6354 187.875 65.54C187.599 65.4447 187.306 65.409 187.014 65.4353C186.71 65.4094 186.404 65.4448 186.114 65.5394C185.824 65.6341 185.557 65.7858 185.328 65.9855C185.1 66.1852 184.916 66.4285 184.788 66.7005C184.659 66.9725 184.588 67.2675 184.579 67.5674L184.61 67.5375ZM196.603 72.2402H194.888L191.469 64.3294H193.031L195.324 69.4106C195.487 69.8092 195.608 70.2475 195.75 70.656C195.862 70.2303 196.008 69.8139 196.187 69.4106L198.459 64.3294H200.032L196.603 72.2402ZM207.764 70.2475L208.322 71.2439C207.34 72.0808 206.069 72.5159 204.77 72.4594C202.569 72.4594 200.935 71.2439 200.935 68.4143C200.935 65.5847 202.559 64.2397 204.791 64.2397C207.023 64.2397 208.322 65.6146 208.372 68.0755C208.378 68.3058 208.361 68.536 208.322 68.763H202.356C202.488 70.5564 203.462 71.2439 204.791 71.2439C205.856 71.2399 206.887 70.8777 207.713 70.2176L207.764 70.2475ZM202.437 67.5674H207.063C207.077 67.2796 207.028 66.9922 206.921 66.7242C206.813 66.4561 206.649 66.2134 206.439 66.012C206.23 65.8106 205.979 65.6552 205.703 65.5558C205.428 65.4564 205.134 65.4153 204.841 65.4353C204.536 65.408 204.228 65.4423 203.936 65.5362C203.644 65.63 203.375 65.7814 203.145 65.9811C202.915 66.1808 202.729 66.4245 202.599 66.6973C202.468 66.9701 202.396 67.2662 202.386 67.5674H202.437ZM212.177 72.2701H210.645V61.3105H212.177V72.2701ZM218.356 64.2397C219.431 64.2917 220.444 64.7473 221.185 65.5124C221.927 66.2774 222.341 67.2933 222.341 68.3495C222.341 69.4058 221.927 70.4216 221.185 71.1867C220.444 71.9517 219.431 72.4074 218.356 72.4594C217.808 72.4893 217.26 72.4039 216.749 72.2091C216.237 72.0143 215.773 71.7145 215.389 71.3297C215.005 70.9449 214.709 70.484 214.521 69.9778C214.333 69.4716 214.257 68.9317 214.298 68.3944C214.253 67.852 214.326 67.3065 214.511 66.7938C214.697 66.2811 214.991 65.813 215.375 65.4203C215.759 65.0276 216.223 64.7193 216.737 64.5158C217.251 64.3123 217.803 64.2182 218.356 64.2397ZM218.356 71.214C218.716 71.2174 219.072 71.146 219.402 71.0045C219.731 70.863 220.027 70.6545 220.268 70.3929C220.51 70.1312 220.692 69.8223 220.803 69.4864C220.914 69.1505 220.952 68.7953 220.913 68.4442C220.913 66.7206 219.899 65.5847 218.377 65.5847C216.855 65.5847 215.83 66.7206 215.83 68.4442C215.802 68.7851 215.846 69.1281 215.959 69.4516C216.072 69.7752 216.252 70.0724 216.487 70.3248C216.722 70.5772 217.007 70.7793 217.326 70.9186C217.644 71.0578 217.988 71.1313 218.336 71.1343L218.356 71.214ZM226.037 64.439V65.4353C226.859 64.7195 227.903 64.298 229 64.2397C230.958 64.2397 232.196 65.3456 232.196 68.3147C232.196 71.2837 230.552 72.4394 228.817 72.4394C228.294 72.4484 227.775 72.3503 227.293 72.1513C226.811 71.9523 226.376 71.6568 226.017 71.2837V75H224.485V64.3593L226.037 64.439ZM226.037 66.8899V69.8789C226.334 70.264 226.711 70.5823 227.143 70.8126C227.575 71.0428 228.053 71.1797 228.543 71.214C229.751 71.214 230.674 70.4468 230.674 68.3545C230.674 66.2622 229.974 65.5349 228.695 65.5349C227.67 65.6115 226.713 66.0673 226.017 66.8102L226.037 66.8899ZM235.909 64.439V65.5349C236.25 65.1548 236.664 64.8447 237.127 64.6224C237.59 64.4001 238.094 64.27 238.608 64.2397C239.121 64.1771 239.64 64.2962 240.072 64.5756C240.503 64.8551 240.819 65.2765 240.962 65.7641C241.313 65.3157 241.759 64.9473 242.268 64.6841C242.778 64.421 243.34 64.2694 243.915 64.2397C245.619 64.2397 246.472 65.236 246.472 67.3383V72.3199H244.94V67.6969C244.94 66.2921 244.696 65.6346 243.651 65.6346C243.167 65.6934 242.701 65.8473 242.279 66.0869C241.857 66.3265 241.489 66.6471 241.196 67.0294V72.2701H239.663V67.6969C239.663 66.2921 239.39 65.6346 238.355 65.6346C237.868 65.6864 237.397 65.8372 236.972 66.0773C236.548 66.3174 236.179 66.6417 235.889 67.0294V72.2701H234.357V64.3593L235.909 64.439ZM255.39 70.2176L255.958 71.214C254.977 72.0509 253.706 72.486 252.407 72.4295C250.205 72.4295 248.572 71.214 248.572 68.3844C248.572 65.5549 250.246 64.2397 252.478 64.2397C254.71 64.2397 256.009 65.6146 256.06 68.0755C256.065 68.3058 256.048 68.536 256.009 68.763H250.033C250.175 70.5564 251.149 71.2439 252.478 71.2439C253.54 71.24 254.568 70.8777 255.39 70.2176ZM250.074 67.5375H254.69C254.712 67.2486 254.67 66.9584 254.566 66.6872C254.462 66.4161 254.299 66.1704 254.088 65.9675C253.877 65.7645 253.624 65.609 253.346 65.512C253.068 65.4149 252.772 65.3785 252.478 65.4054C252.174 65.3851 251.869 65.4257 251.581 65.5246C251.294 65.6235 251.029 65.7787 250.804 65.9808C250.58 66.183 250.399 66.4278 250.273 66.7005C250.148 66.9732 250.08 67.2682 250.074 67.5674V67.5375ZM259.773 64.3294V65.4851C260.553 64.7057 261.614 64.2585 262.726 64.2397C264.552 64.2397 265.405 65.236 265.405 67.3383V72.3199H263.872V67.6969C263.872 66.2523 263.67 65.6346 262.442 65.6346C261.92 65.6632 261.41 65.8038 260.949 66.0465C260.488 66.2892 260.087 66.6281 259.773 67.0394V72.2701H258.241V64.3593L259.773 64.3294ZM272.456 70.8354L272.629 71.9413C272.029 72.1666 271.394 72.2912 270.752 72.3099C269.047 72.3099 268.347 71.5228 268.347 69.6597V65.6346H267.17V64.3593H268.388V62.3666H269.92V64.3593H272.243V65.6346H269.859V69.6199C269.859 70.6959 270.265 70.935 271.239 70.935C271.646 70.9484 272.053 70.9251 272.456 70.8653V70.8354ZM284.297 64.8574L283.881 65.9932C283.047 65.6402 282.159 65.4248 281.253 65.3556C280.391 65.3556 279.914 65.7143 279.914 66.3519C279.914 66.9896 280.644 67.1689 281.7 67.5076C283.668 68.1254 284.53 68.504 284.53 70.118C284.53 71.5328 283.404 72.3896 281.628 72.3896C280.356 72.3847 279.119 71.9796 278.098 71.2339L278.747 70.1678C279.554 70.8224 280.571 71.1753 281.618 71.1641C282.501 71.1641 283.1 70.8354 283.1 70.1678C283.1 69.1715 282.4 69.1715 280.878 68.6634C279.356 68.1553 278.473 67.6671 278.473 66.4316C278.473 64.9869 279.488 64.1799 281.294 64.1799C282.334 64.2189 283.355 64.4629 284.297 64.8973V64.8574ZM293.043 70.2176L293.611 71.214C292.63 72.0509 291.359 72.486 290.06 72.4295C287.858 72.4295 286.225 71.214 286.225 68.3844C286.225 65.5549 287.899 64.2397 290.131 64.2397C292.363 64.2397 293.662 65.6146 293.713 68.0755C293.718 68.3058 293.701 68.536 293.662 68.763H287.686C287.828 70.5564 288.802 71.2439 290.131 71.2439C291.193 71.24 292.221 70.8777 293.043 70.2176ZM287.726 67.5375H292.343C292.365 67.2486 292.322 66.9584 292.218 66.6872C292.114 66.4161 291.951 66.1704 291.741 65.9675C291.53 65.7645 291.277 65.609 290.999 65.512C290.721 65.4149 290.425 65.3785 290.131 65.4054C289.827 65.3851 289.522 65.4257 289.234 65.5246C288.946 65.6235 288.682 65.7787 288.457 65.9808C288.232 66.183 288.052 66.4278 287.926 66.7005C287.801 66.9732 287.733 67.2682 287.726 67.5674V67.5375ZM297.426 64.3294V65.8737C297.621 65.3988 297.954 64.9907 298.383 64.7001C298.813 64.4096 299.32 64.2495 299.841 64.2397C300.18 64.2353 300.519 64.252 300.856 64.2895L300.754 65.774C300.348 65.774 300.074 65.774 299.74 65.774C299.175 65.7989 298.636 66.0087 298.207 66.3699C297.779 66.7311 297.486 67.2229 297.375 67.7667V72.3199H295.843V64.3593L297.426 64.3294ZM306.862 72.2402H305.158L301.728 64.3294H303.301L305.584 69.4106C305.756 69.8092 305.878 70.2475 306.01 70.656C306.125 70.2301 306.275 69.8136 306.456 69.4106L308.729 64.3294H310.292L306.862 72.2402ZM311.814 62.0578C311.838 61.835 311.945 61.6287 312.114 61.4788C312.284 61.329 312.504 61.246 312.732 61.246C312.96 61.246 313.18 61.329 313.35 61.4788C313.519 61.6287 313.626 61.835 313.65 62.0578C313.626 62.2806 313.519 62.4868 313.35 62.6367C313.18 62.7866 312.96 62.8695 312.732 62.8695C312.504 62.8695 312.284 62.7866 312.114 62.6367C311.945 62.4868 311.838 62.2806 311.814 62.0578ZM313.518 72.2701H311.986V64.3593H313.518V72.2701ZM322.457 70.2774L323.025 71.2737C322.056 72.0767 320.811 72.4865 319.545 72.4195C317.303 72.4195 315.801 70.7855 315.801 68.3545C315.759 67.8255 315.829 67.2936 316.008 66.7928C316.187 66.292 316.47 65.8333 316.84 65.4461C317.209 65.0588 317.657 64.7515 318.154 64.5438C318.651 64.3361 319.187 64.2325 319.728 64.2397C320.756 64.2421 321.767 64.5064 322.66 65.0069L322.132 66.0032C321.386 65.6613 320.572 65.4845 319.748 65.4851C318.267 65.4851 317.272 66.6408 317.272 68.3645C317.272 70.0881 318.226 71.1343 319.697 71.1343C320.672 71.1525 321.626 70.851 322.406 70.2774H322.457ZM331.244 70.2774L331.812 71.2737C330.828 72.1063 329.559 72.5407 328.261 72.4893C326.059 72.4893 324.415 71.2737 324.415 68.4442C324.415 65.6146 326.018 64.2397 328.281 64.2397C330.544 64.2397 331.812 65.6146 331.863 68.0755C331.868 68.3058 331.851 68.536 331.812 68.763H325.836C325.978 70.5564 326.942 71.2439 328.281 71.2439C329.343 71.2384 330.37 70.8763 331.193 70.2176L331.244 70.2774ZM325.917 67.5973H330.544C330.566 67.3084 330.523 67.0182 330.419 66.747C330.315 66.4759 330.152 66.2302 329.942 66.0272C329.731 65.8243 329.478 65.6688 329.2 65.5717C328.922 65.4747 328.626 65.4383 328.332 65.4652C328.028 65.438 327.722 65.4713 327.432 65.5632C327.141 65.6552 326.873 65.8038 326.643 66.0002C326.412 66.1965 326.225 66.4366 326.091 66.7059C325.958 66.9753 325.881 67.2683 325.866 67.5674L325.917 67.5973ZM339.756 64.9272L339.351 66.063C338.516 65.71 337.628 65.4945 336.723 65.4253C335.85 65.4253 335.373 65.784 335.373 66.4217C335.373 67.0593 336.104 67.2386 337.169 67.5774C339.127 68.1951 340 68.5737 340 70.1878C340 71.6025 338.874 72.4594 337.098 72.4594C335.825 72.4565 334.587 72.0513 333.567 71.3036L334.135 70.2176C334.938 70.8738 335.953 71.2271 336.997 71.214C337.89 71.214 338.478 70.8852 338.478 70.2176C338.478 69.2213 337.778 69.2213 336.266 68.7132C334.754 68.2051 333.861 67.7169 333.861 66.4814C333.861 65.0368 334.876 64.2297 336.672 64.2297C337.719 64.248 338.751 64.4751 339.706 64.8973L339.756 64.9272Z" fill="black"/>
<path d="M124.062 21.9828L122.05 27.0578C117.682 25.3993 115.005 24.863 112.217 24.863C110.034 24.863 108.443 25.9356 108.443 27.3955C108.443 29.4514 110.084 29.9877 116.243 31.9839C122.1 33.9702 124.636 36.036 124.636 41.111C124.636 46.6727 120.46 49.9998 113.958 49.9998C109.05 49.7977 104.263 48.4353 100 46.0272L102.576 40.7535C107.004 43.0477 110.627 44.0706 113.646 44.0706C115.881 44.0706 117.229 43.147 117.229 41.4785C117.229 39.5816 116.132 38.8963 110.124 37.1384C104.609 35.5295 101.379 32.9373 101.379 27.912C101.379 22.8866 105.102 19.2715 111.714 19.2715C115.98 19.2905 120.191 20.2152 124.062 21.9828ZM143.979 19.2913C153.368 19.2913 159.074 24.8133 159.074 34.7151C159.074 44.6169 153.418 49.9998 143.979 49.9998C134.539 49.9998 128.883 44.4778 128.883 34.7151C128.883 24.9523 134.539 19.2913 143.979 19.2913ZM143.979 43.8422C149.01 43.8422 152.03 40.7237 152.03 34.7151C152.03 28.7065 149.091 25.4489 143.979 25.4489C138.866 25.4489 135.978 28.5674 135.978 34.7151C135.978 40.8627 138.906 43.8422 143.979 43.8422ZM171.151 33.1558H183.569V39.1148H171.151V49.5529H164.247V19.8475H185.552V25.9852H171.151V33.1558ZM214.264 25.9852H204.482V49.5529H197.578V25.9852H187.836V19.8475H214.264V25.9852ZM240.54 49.5529H218.4V19.8475H240.107V25.9852H225.344V31.8349H238.054V37.7939H225.344V43.4549H240.54V49.5529ZM272.331 49.0166V49.5529H264.935L258.323 40.9124H253.21V49.5529H246.337V19.8475H258.413C266.806 19.8475 271.496 23.691 271.496 30.6233C271.594 32.6192 271.038 34.593 269.91 36.2529C268.783 37.9127 267.144 39.1704 265.236 39.8398L272.331 49.0166ZM253.21 35.3408H258.474C262.399 35.3408 264.582 33.6326 264.582 30.6134C264.582 27.5942 262.399 25.727 258.474 25.727H253.21V35.3408ZM304.374 49.5429L303.921 32.411V30.961L295.981 49.5529H291.553L283.703 30.961V32.2819L283.16 49.5529H276.206L277.353 19.8475H285.253L293.043 37.7244C293.346 38.4027 293.595 39.1033 293.787 39.8199C293.938 39.2836 294.19 38.509 294.492 37.7244L302.301 19.8475H310.171L311.379 49.5529L304.374 49.5429ZM325.025 49.5429H317.981V19.8475H325.025V49.5429ZM339.114 49.5429H332.07V19.8475H339.114V49.5429Z" fill="black"/>
<path d="M321.583 13.4816C323.968 13.4816 325.901 11.5829 325.901 9.24079C325.901 6.89866 323.968 5 321.583 5C319.199 5 317.266 6.89866 317.266 9.24079C317.266 11.5829 319.199 13.4816 321.583 13.4816Z" fill="black"/>
<path d="M335.683 13.4816C338.067 13.4816 340 11.5829 340 9.24079C340 6.89866 338.067 5 335.683 5C333.298 5 331.365 6.89866 331.365 9.24079C331.365 11.5829 333.298 13.4816 335.683 13.4816Z" fill="black"/>
<path fill-rule="evenodd" clip-rule="evenodd" d="M17.251 36.4238C16.6935 34.9023 16.6071 33.2457 17.0033 31.6736C17.3994 30.1014 18.2595 28.6877 19.4695 27.6198C20.6796 26.5519 22.1825 25.8801 23.7793 25.6933C25.3761 25.5066 26.9915 25.8138 28.4115 26.5741C28.6273 26.6655 28.8316 26.7824 29.0202 26.9223C30.1134 27.66 31.4095 28.0304 32.7237 27.9805C34.0378 27.9305 35.3027 27.4629 36.3378 26.6443C37.3729 25.8256 38.1252 24.6979 38.4874 23.4221C38.8495 22.1463 38.803 20.7877 38.3544 19.5401C38.2754 19.3167 38.1839 19.0979 38.0804 18.8849C37.7934 18.4347 37.5358 17.9662 37.3094 17.4822C36.8465 16.1977 36.9083 14.7804 37.481 13.5419C38.0537 12.3034 39.0905 11.3452 40.3633 10.8782C41.636 10.4111 43.0405 10.4734 44.2678 11.0514C45.495 11.6293 46.4445 12.6756 46.9073 13.96C47.0065 14.2361 47.0812 14.5205 47.1305 14.8098C62.816 11.3901 79.3132 19.6835 84.9543 35.3487C91.1229 52.4474 82.9251 71.7986 65.9612 78.0135C50.5497 83.6755 32.8553 76.8258 25.3068 62.6554C25.0425 62.8117 24.7639 62.942 24.4749 63.0445C23.2021 63.5115 21.7976 63.4492 20.5704 62.8713C19.3431 62.2933 18.3936 61.247 17.9308 59.9626C17.468 58.6782 17.5297 57.2608 18.1024 56.0224C18.6751 54.7839 19.7119 53.8257 20.9847 53.3586C21.2993 53.2495 21.6215 53.1639 21.9486 53.1027C23.3868 52.3488 24.5042 51.0926 25.0923 49.5685C25.6803 48.0444 25.6989 46.3564 25.1445 44.8195C24.5768 43.2381 23.4292 41.937 21.9384 41.1848C20.8639 40.7778 19.8891 40.1418 19.0802 39.3202C18.2713 38.4986 17.6474 37.5107 17.251 36.4238ZM5.80652 47.3383C5.22766 47.5491 4.59999 47.5828 4.00224 47.4351C3.40449 47.2874 2.86327 46.9648 2.44646 46.5079C2.02965 46.051 1.75581 45.4801 1.65928 44.8667C1.56276 44.2533 1.64784 43.6249 1.90387 43.0601C2.1599 42.4954 2.57547 42.0195 3.09846 41.6921C3.62145 41.3648 4.22858 41.2006 4.84369 41.2201C5.4588 41.2396 6.0545 41.442 6.55609 41.8018C7.05768 42.1616 7.44282 42.6629 7.6632 43.2428C7.81061 43.6345 7.87945 44.0518 7.86572 44.4706C7.85199 44.8894 7.75598 45.3012 7.58325 45.6822C7.41051 46.0632 7.16451 46.4058 6.8595 46.6901C6.5545 46.9744 6.19658 47.1947 5.80652 47.3383ZM2.76276 33.8232C2.38524 33.9709 1.97256 34.0013 1.57779 33.9104C1.18303 33.8195 0.824239 33.6115 0.54757 33.3131C0.270902 33.0148 0.089009 32.6397 0.0252868 32.2362C-0.0384353 31.8327 0.0189276 31.4191 0.189997 31.0488C0.361067 30.6784 0.638021 30.3682 0.985234 30.158C1.33245 29.9477 1.73404 29.8471 2.13837 29.8691C2.54269 29.8911 2.93124 30.0347 3.25406 30.2813C3.57688 30.528 3.81919 30.8665 3.94983 31.2532C4.11766 31.756 4.08559 32.3049 3.86038 32.7842C3.63517 33.2636 3.2344 33.6361 2.74247 33.8232H2.76276ZM4.52814 20.3695C4.15062 20.5172 3.73793 20.5476 3.34317 20.4567C2.94841 20.3658 2.58962 20.1578 2.31295 19.8594C2.03628 19.5611 1.85439 19.186 1.79066 18.7825C1.72694 18.379 1.7843 17.9654 1.95537 17.5951C2.12644 17.2247 2.4034 16.9145 2.75061 16.7043C3.09783 16.4941 3.49942 16.3935 3.90374 16.4155C4.30806 16.4374 4.69662 16.581 5.01944 16.8277C5.34225 17.0743 5.58456 17.4128 5.7152 17.7996C5.88415 18.2997 5.85495 18.8464 5.63372 19.3254C5.41249 19.8043 5.01636 20.1784 4.52814 20.3695ZM22.4964 14.9839C22.1189 15.1316 21.7062 15.162 21.3115 15.0711C20.9167 14.9802 20.5579 14.7722 20.2812 14.4739C20.0046 14.1755 19.8227 13.8005 19.759 13.3969C19.6952 12.9934 19.7526 12.5799 19.9237 12.2095C20.0947 11.8392 20.3717 11.5289 20.7189 11.3187C21.0661 11.1085 21.4677 11.0079 21.872 11.0299C22.2764 11.0519 22.6649 11.1954 22.9877 11.4421C23.3105 11.6887 23.5529 12.0272 23.6835 12.414C23.7739 12.6613 23.8149 12.9242 23.8041 13.1876C23.7933 13.451 23.7309 13.7096 23.6205 13.9485C23.5102 14.1874 23.354 14.402 23.1611 14.5797C22.9681 14.7574 22.7423 14.8948 22.4964 14.9839ZM27.5694 3.97728C27.1893 4.11358 26.7776 4.13247 26.3868 4.03156C25.9961 3.93065 25.644 3.7145 25.3755 3.41072C25.107 3.10694 24.9344 2.7293 24.8796 2.32604C24.8247 1.92277 24.8903 1.51216 25.0678 1.14665C25.2452 0.781132 25.5267 0.47729 25.8761 0.273916C26.2255 0.0705422 26.627 -0.0231351 27.0294 0.0048446C27.4318 0.0328243 27.8168 0.181191 28.1352 0.431003C28.4537 0.680814 28.6912 1.02073 28.8173 1.40736C28.9835 1.91403 28.9472 2.46618 28.716 2.9462C28.4848 3.42622 28.077 3.79618 27.5795 3.97728H27.5694ZM14.6131 9.94646C14.2343 10.0885 13.822 10.1131 13.4292 10.0172C13.0364 9.92125 12.681 9.70914 12.4084 9.40804C12.1358 9.10693 11.9585 8.73054 11.8993 8.32711C11.84 7.92368 11.9015 7.51158 12.0758 7.14363C12.2501 6.77568 12.5293 6.46864 12.8777 6.26186C13.226 6.05508 13.6276 5.95797 14.031 5.98299C14.4344 6.00801 14.8212 6.15402 15.1418 6.4023C15.4624 6.65057 15.7023 6.98981 15.8306 7.37654C15.9979 7.88059 15.9644 8.43055 15.7372 8.91013C15.51 9.38972 15.1069 9.76135 14.6131 9.94646ZM32.0741 24.2807C31.1767 24.6113 30.2023 24.666 29.2741 24.4377C28.3459 24.2094 27.5057 23.7085 26.8597 22.9982C26.2137 22.2879 25.7909 21.4003 25.6449 20.4475C25.4989 19.4947 25.6362 18.5197 26.0395 17.6457C26.4427 16.7717 27.0937 16.038 27.9102 15.5374C28.7267 15.0369 29.672 14.7919 30.6264 14.8336C31.5809 14.8753 32.5017 15.2017 33.2722 15.7716C34.0428 16.3414 34.6286 17.1291 34.9555 18.035C35.1777 18.6353 35.2801 19.2739 35.257 19.9141C35.2338 20.5544 35.0855 21.1838 34.8206 21.7661C34.5556 22.3483 34.1793 22.872 33.7132 23.3071C33.2471 23.7421 32.7004 24.08 32.1045 24.3011L32.0741 24.2807ZM12.4318 30.0451C14.4658 30.0451 16.1147 28.3811 16.1147 26.3284C16.1147 24.2758 14.4658 22.6118 12.4318 22.6118C10.3977 22.6118 8.74881 24.2758 8.74881 26.3284C8.74881 28.3811 10.3977 30.0451 12.4318 30.0451ZM21.2282 46.8571C21.2282 49.5487 19.0705 51.7307 16.4089 51.7307C13.7473 51.7307 11.5896 49.5487 11.5896 46.8571C11.5896 44.1654 13.7473 41.9834 16.4089 41.9834C19.0705 41.9834 21.2282 44.1654 21.2282 46.8571ZM37.1673 8.93282C38.7307 8.93282 39.998 7.65388 39.998 6.07622C39.998 4.49856 38.7307 3.21962 37.1673 3.21962C35.604 3.21962 34.3366 4.49856 34.3366 6.07622C34.3366 7.65388 35.604 8.93282 37.1673 8.93282ZM54.4254 35.9221C58.0069 35.9221 61.3348 36.6183 66.8642 38.7787L69.4007 32.1849C64.4894 29.8939 59.1461 28.6995 53.7355 28.6833C45.3753 28.6833 40.6677 33.4238 40.6677 39.9459C40.6677 46.468 44.7463 49.8774 51.7266 51.9252C59.3259 54.2084 60.7057 55.0992 60.7057 57.5667C60.7057 59.7271 59.0114 60.9353 56.1807 60.9353C52.3861 60.9353 47.8306 59.6042 42.2403 56.6145L38.9632 63.4642C44.3561 66.5826 50.4163 68.339 56.6271 68.5836C64.8554 68.5836 70.1312 64.2731 70.1312 57.0446C70.1312 50.4508 66.9353 47.7171 59.5187 45.1881C51.6759 42.5875 49.6467 41.8912 49.6467 39.2189C49.6467 37.3248 51.6658 35.9221 54.4254 35.9221Z" fill="black"/>
</svg>
